<svg xmlns="http://www.w3.org/2000/svg" width="506.591" height="619.338" viewBox="0 0 506.591 619.338">
  <g id="Composant_1_1" data-name="Composant 1 – 1" transform="translate(1.623 1.591)">
    <path id="blob-5" d="M359.994-42.063c34.25,22.52,35.188,93.835,37.065,152.012,1.408,58.178,4.692,103.687-11.729,138.875-16.89,35.188-53.017,60.523-88.674,112.132s-70.845,129.492-118.7,146.851S69.575,482.473,38.61,429.456C7.644,375.971,6.237,312.632-7.838,256.8-22.383,200.5-49.595,151.236-51.472,95.874c-2.346-55.363,20.644-117.763,65.215-137S124.469-36.9,191.56-37.841C258.183-38.779,326.213-64.584,359.994-42.063Z" transform="translate(106.667 106.009)" fill="#b4a7d6"/>
    <path id="blob-5-2" data-name="blob-5" d="M359.994-42.063c34.25,22.52,35.188,93.835,37.065,152.012,1.408,58.178,4.692,103.687-11.729,138.875-16.89,35.188-53.017,60.523-88.674,112.132s-70.845,129.492-118.7,146.851S69.575,482.473,38.61,429.456C7.644,375.971,6.237,312.632-7.838,256.8-22.383,200.5-49.595,151.236-51.472,95.874c-2.346-55.363,20.644-117.763,65.215-137S124.469-36.9,191.56-37.841C258.183-38.779,326.213-64.584,359.994-42.063Z" transform="matrix(0.998, -0.07, 0.07, 0.998, 55.085, 78.92)" fill="none" stroke="#351c75" stroke-width="3"/>
  </g>
</svg>
