<svg xmlns="http://www.w3.org/2000/svg" width="240.659" height="298.79" viewBox="0 0 240.659 298.79">
  <g id="Composant_2_1" data-name="Composant 2 – 1" transform="translate(0 1.723)">
    <path id="blob-6" d="M102.9-24.87C125.778.574,147.012,21.808,148.11,44.323c1.1,22.332-17.939,45.946-32.949,71.756-15.193,25.627-26.176,53.634-46.678,65.532-20.685,12.081-50.888,8.054-65.349-9.885-14.644-17.756-13.546-49.607-15.376-70.841-1.831-21.417-6.59-32.217-13.546-52.353C-32.927,28.4-42.08-.89-33.111-28.714c9.153-27.641,36.427-54,62.42-52.353C55.3-79.6,79.832-50.131,102.9-24.87Z" transform="translate(36.834 106.759)" fill="#d9d2e9"/>
    <path id="blob-6-2" data-name="blob-6" d="M102.9-24.87C125.778.574,147.012,21.808,148.11,44.323c1.1,22.332-17.939,45.946-32.949,71.756-15.193,25.627-26.176,53.634-46.678,65.532-20.685,12.081-50.888,8.054-65.349-9.885-14.644-17.756-13.546-49.607-15.376-70.841-1.831-21.417-6.59-32.217-13.546-52.353C-32.927,28.4-42.08-.89-33.111-28.714c9.153-27.641,36.427-54,62.42-52.353C55.3-79.6,79.832-50.131,102.9-24.87Z" transform="translate(79.919 85.903) rotate(9)" fill="none" stroke="#351c75" stroke-width="3"/>
  </g>
</svg>
