<svg xmlns="http://www.w3.org/2000/svg" width="640.849" height="585.274" viewBox="0 0 640.849 585.274">
  <g id="Composant_3_1" data-name="Composant 3 – 1" transform="translate(2.012 1.966)">
    <path id="blob-4" d="M325.551-22.346C378.9-3.37,433.322,34.225,448,83.993s-10.025,110.993-41.533,158.255c-31.866,47.262-70.534,80.559-111.709,94.165-41.175,13.248-84.856,7.161-117.8-7.161-32.94-14.68-55.138-37.594-84.856-54.78S25.154,245.828-5.28,216.826c-30.792-29-55.138-75.547-58.719-131.4C-67.937,29.57-51.109-35.235-9.218-57.792c41.891-22.915,108.845-2.864,168.638,7.161C219.212-40.964,271.845-40.964,325.551-22.346Z" transform="translate(165.384 166.002)" fill="#f6b26b"/>
    <path id="blob-4-2" data-name="blob-4" d="M325.551-22.346C378.9-3.37,433.322,34.225,448,83.993s-10.025,110.993-41.533,158.255c-31.866,47.262-70.534,80.559-111.709,94.165-41.175,13.248-84.856,7.161-117.8-7.161-32.94-14.68-55.138-37.594-84.856-54.78S25.154,245.828-5.28,216.826c-30.792-29-55.138-75.547-58.719-131.4C-67.937,29.57-51.109-35.235-9.218-57.792c41.891-22.915,108.845-2.864,168.638,7.161C219.212-40.964,271.845-40.964,325.551-22.346Z" transform="matrix(0.921, -0.391, 0.391, 0.921, 86.13, 239.66)" fill="none" stroke="#351c75" stroke-linecap="round" stroke-width="3"/>
  </g>
</svg>
