<svg xmlns="http://www.w3.org/2000/svg" xmlns:xlink="http://www.w3.org/1999/xlink" width="790.827" height="1034.664" viewBox="0 0 790.827 1034.664">
  <defs>
    <clipPath id="clip-path">
      <ellipse id="Ellipse_7" data-name="Ellipse 7" cx="12.163" cy="16.495" rx="12.163" ry="16.495" fill="#b8b8c2"/>
    </clipPath>
    <clipPath id="clip-path-3">
      <path id="Tracé_7" data-name="Tracé 7" d="M123.621,307.4V250.753a16.2,16.2,0,0,1,13.927-16.075,165.449,165.449,0,0,1,25.323-1.654s53.777-33.055,73.5-33.055l123.544-.637a103.874,103.874,0,0,1,47.7,10.869L462.63,237.58,535.782,253.6s15.153,4.111,18.4,13.962,2.165,20.673,2.165,20.673H395.678s-7.241-22.767-30.41-22.767-29.444,27.937-28,41.934H215.881s.482-41.512-30.893-40.063S156.026,307.4,156.026,307.4H123.621" transform="translate(-123.621 -199.323)" fill="#f6b26b"/>
    </clipPath>
    <clipPath id="clip-path-4">
      <path id="Tracé_11" data-name="Tracé 11" d="M350.057,236.541l-48.82-27.462a27.7,27.7,0,0,0-13.582-3.558H258.583a39.911,39.911,0,0,0-21.259,6.132L190.94,237.974a1.483,1.483,0,0,0,.732,2.772H348.956A2.247,2.247,0,0,0,350.057,236.541Z" transform="translate(-190.186 -205.521)"/>
    </clipPath>
  </defs>
  <g id="Groupe_1802" data-name="Groupe 1802" transform="translate(-39.253 -77.147)">
    <g id="Composant_3_1" data-name="Composant 3 – 1" transform="translate(91.284 725.364) rotate(-72)">
      <path id="blob-4" d="M177.362,20.915c24.255,8.628,49,25.72,55.672,48.347s-4.558,50.463-18.883,71.951c-14.488,21.487-32.068,36.626-50.789,42.812-18.72,6.023-38.58,3.256-53.556-3.256-14.976-6.674-25.069-17.092-38.58-24.906S40.786,142.84,26.95,129.655c-14-13.186-25.069-34.347-26.7-59.742C-1.538,44.519,6.113,15.055,25.159,4.8,44.2-5.619,74.645,3.5,101.83,8.055,129.015,12.45,152.945,12.45,177.362,20.915Z" transform="translate(45.842 44.398)" fill="#f6b26b"/>
      <path id="blob-4-2" data-name="blob-4" d="M177.362,20.915c24.255,8.628,49,25.72,55.672,48.347s-4.558,50.463-18.883,71.951c-14.488,21.488-32.068,36.626-50.789,42.812-18.72,6.023-38.58,3.256-53.556-3.256-14.976-6.674-25.069-17.092-38.58-24.906S40.786,142.84,26.95,129.655c-14-13.186-25.069-34.347-26.7-59.742C-1.538,44.519,6.113,15.055,25.159,4.8,44.2-5.619,74.645,3.5,101.83,8.055,129.015,12.45,152.945,12.45,177.362,20.915Z" transform="matrix(0.921, -0.391, 0.391, 0.921, 0, 91.825)" fill="none" stroke="#351c75" stroke-linecap="round" stroke-width="3"/>
    </g>
    <g id="Composant_2_1" data-name="Composant 2 – 1" transform="matrix(0.53, 0.848, -0.848, 0.53, 752.735, 661.474)">
      <path id="blob-6" d="M99,39.867c16.211,18.027,31.255,33.071,32.033,49.023.778,15.822-12.71,32.552-23.344,50.839-10.764,18.157-18.546,38-33.071,46.429-14.655,8.56-36.054,5.706-46.3-7-10.375-12.58-9.6-35.146-10.894-50.19-1.3-15.174-4.669-22.825-9.6-37.091C2.768,77.607-3.717,56.856,2.638,37.143,9.123,17.56,28.447-1.115,46.863.052,65.279,1.09,82.657,21.97,99,39.867Z" transform="translate(0 18.151)" fill="#d9d2e9"/>
      <path id="blob-6-2" data-name="blob-6" d="M99,39.867c16.211,18.027,31.255,33.071,32.033,49.023.778,15.822-12.71,32.552-23.344,50.839-10.764,18.157-18.546,38-33.071,46.429-14.655,8.56-36.054,5.706-46.3-7-10.375-12.58-9.6-35.146-10.894-50.19-1.3-15.174-4.669-22.825-9.6-37.091C2.768,77.607-3.717,56.856,2.638,37.143,9.123,17.56,28.447-1.115,46.863.052,65.279,1.09,82.657,21.97,99,39.867Z" transform="translate(39.84 0) rotate(9)" fill="none" stroke="#351c75" stroke-width="3"/>
    </g>
    <g id="Illustration_1" data-name="Illustration 1" transform="translate(507.559 602.134)">
      <g id="Groupe_59" data-name="Groupe 59" transform="translate(-270.555 -148.61)">
        <g id="Groupe_21" data-name="Groupe 21" transform="translate(92.118 159.614)">
          <g id="Groupe_9" data-name="Groupe 9" transform="translate(23.476 60.237)">
            <path id="Tracé_1" data-name="Tracé 1" d="M354.453,284.644h-14.51c-14.245,0-25.793,14.945-25.793,33.381S325.7,351.4,339.943,351.4h14.51c14.246,0,25.794-14.945,25.794-33.38S368.7,284.644,354.453,284.644Z" transform="translate(-178.57 -276.557)"/>
            <path id="Tracé_2" data-name="Tracé 2" d="M580.425,284.644h-14.51c-14.245,0-25.793,14.945-25.793,33.381s11.548,33.38,25.793,33.38h14.51c14.246,0,25.794-14.945,25.794-33.38S594.671,284.644,580.425,284.644Z" transform="translate(-223.587 -276.557)"/>
            <g id="Groupe_4" data-name="Groupe 4" transform="translate(180.954)">
              <rect id="Rectangle_8" data-name="Rectangle 8" width="106.964" height="47.841"/>
              <g id="Groupe_3" data-name="Groupe 3" transform="translate(19.108 9.548)">
                <ellipse id="Ellipse_3" data-name="Ellipse 3" cx="25.195" cy="32.605" rx="25.195" ry="32.605" transform="translate(14.173 0)"/>
                <path id="Tracé_3" data-name="Tracé 3" d="M426.136,351.68h14.173L454.8,337.191l-14.489-50.721H426.136Z" transform="translate(-400.942 -286.469)"/>
                <ellipse id="Ellipse_4" data-name="Ellipse 4" cx="25.195" cy="32.605" rx="25.195" ry="32.605" transform="translate(0 0)" fill="#253a6a"/>
                <g id="Groupe_2" data-name="Groupe 2" transform="translate(11.29 15.423)">
                  <ellipse id="Ellipse_5" data-name="Ellipse 5" cx="12.163" cy="16.495" rx="12.163" ry="16.495" fill="#b8b8c2"/>
                  <g id="Groupe_1" data-name="Groupe 1" clip-path="url(#clip-path)">
                    <ellipse id="Ellipse_6" data-name="Ellipse 6" cx="12.163" cy="16.495" rx="12.163" ry="16.495" transform="translate(5.663)" fill="#fff"/>
                  </g>
                </g>
              </g>
            </g>
            <g id="Groupe_8" data-name="Groupe 8">
              <rect id="Rectangle_9" data-name="Rectangle 9" width="106.964" height="47.841"/>
              <g id="Groupe_7" data-name="Groupe 7" transform="translate(19.108 9.548)">
                <ellipse id="Ellipse_8" data-name="Ellipse 8" cx="25.195" cy="32.605" rx="25.195" ry="32.605" transform="translate(14.173 0)"/>
                <path id="Tracé_4" data-name="Tracé 4" d="M200.164,351.68h14.173l14.489-14.489-14.489-50.721H200.164Z" transform="translate(-174.97 -286.469)"/>
                <ellipse id="Ellipse_9" data-name="Ellipse 9" cx="25.195" cy="32.605" rx="25.195" ry="32.605" transform="translate(0 0)" fill="#253a6a"/>
                <g id="Groupe_6" data-name="Groupe 6" transform="translate(11.29 15.423)">
                  <ellipse id="Ellipse_10" data-name="Ellipse 10" cx="12.163" cy="16.495" rx="12.163" ry="16.495" fill="#b8b8c2"/>
                  <g id="Groupe_5" data-name="Groupe 5" clip-path="url(#clip-path)">
                    <ellipse id="Ellipse_11" data-name="Ellipse 11" cx="12.163" cy="16.495" rx="12.163" ry="16.495" transform="translate(5.663)" fill="#fff"/>
                  </g>
                </g>
              </g>
            </g>
          </g>
          <g id="Groupe_20" data-name="Groupe 20">
            <g id="Groupe_11" data-name="Groupe 11" transform="translate(6.484)">
              <path id="Tracé_5" data-name="Tracé 5" d="M123.621,307.4V250.753a16.2,16.2,0,0,1,13.927-16.075,165.449,165.449,0,0,1,25.323-1.654s53.777-33.055,73.5-33.055l123.544-.637a103.874,103.874,0,0,1,47.7,10.869L462.63,237.58,535.782,253.6s15.153,4.111,18.4,13.962,2.165,20.673,2.165,20.673H395.678s-7.241-22.767-30.41-22.767-29.444,27.937-28,41.934H215.881s.482-41.512-30.893-40.063S156.026,307.4,156.026,307.4H123.621" transform="translate(-123.621 -199.323)" fill="#f6b26b"/>
              <g id="Groupe_10" data-name="Groupe 10" clip-path="url(#clip-path-3)">
                <path id="Tracé_6" data-name="Tracé 6" d="M387.127,224.761l85.629,45.359,165.914-.193-145.724-70.6-26.3,32.414-79.521-6.976" transform="translate(-176.116 -199.323)" fill="#f6b26b"/>
              </g>
            </g>
            <g id="Groupe_12" data-name="Groupe 12" transform="translate(0 88.908)">
              <path id="Tracé_8" data-name="Tracé 8" d="M123.2,310.35a7.672,7.672,0,0,0-7.671,7.661l0,3.84a7.666,7.666,0,0,0,7.667,7.667h31.222s-.159-10.449,2.609-19.168Z" transform="translate(-115.524 -310.35)" fill="#cf8127"/>
            </g>
            <g id="Groupe_17" data-name="Groupe 17" transform="translate(59.788 4.963)">
              <g id="Groupe_15" data-name="Groupe 15" transform="translate(0 0)">
                <g id="Groupe_14" data-name="Groupe 14">
                  <path id="Tracé_9" data-name="Tracé 9" d="M350.057,236.541l-48.82-27.462a27.7,27.7,0,0,0-13.582-3.558H258.583a39.911,39.911,0,0,0-21.259,6.132L190.94,237.974a1.483,1.483,0,0,0,.732,2.772H348.956A2.247,2.247,0,0,0,350.057,236.541Z" transform="translate(-190.186 -205.521)"/>
                  <g id="Groupe_13" data-name="Groupe 13" clip-path="url(#clip-path-4)">
                    <path id="Tracé_10" data-name="Tracé 10" d="M192.15,203.484l100.2,56.9h40.328l-100.172-56.9Z" transform="translate(-190.577 -205.115)" fill="#5e5e5e"/>
                  </g>
                </g>
                <path id="Tracé_12" data-name="Tracé 12" d="M190.745,247.473v19.7s42.594-8.579,46.911,40.235h97.284s-2.6-47.717,15.361-59.357" transform="translate(-190.298 -213.879)" fill="none" stroke="#000" stroke-linecap="round" stroke-linejoin="round" stroke-width="0.629"/>
                <path id="Tracé_13" data-name="Tracé 13" d="M288.251,249.51s-10.149,4.5-5.227,58.3" transform="translate(-208.413 -214.284)" fill="none" stroke="#000" stroke-linecap="round" stroke-linejoin="round" stroke-width="0.629"/>
                <rect id="Rectangle_10" data-name="Rectangle 10" width="13.649" height="4.771" rx="1.936" transform="translate(83.774 39.991)"/>
                <rect id="Rectangle_11" data-name="Rectangle 11" width="13.649" height="4.771" rx="1.936" transform="translate(10.345 39.991)"/>
              </g>
              <g id="Groupe_16" data-name="Groupe 16" transform="translate(128.039)">
                <path id="Tracé_14" data-name="Tracé 14" d="M351.651,211.079l55.88,29.667h95L438.622,209.5a39.1,39.1,0,0,0-17.177-3.974H353.035A2.951,2.951,0,0,0,351.651,211.079Z" transform="translate(-350.079 -205.521)"/>
                <line id="Ligne_1" data-name="Ligne 1" x2="87.938" transform="translate(71.327 39.991)" fill="none" stroke="#000" stroke-linecap="round" stroke-linejoin="round" stroke-width="0.629"/>
                <path id="Tracé_15" data-name="Tracé 15" d="M374.635,205.521l62.029,35.226h20.7l-62.009-35.226Z" transform="translate(-354.971 -205.521)" fill="#5e5e5e"/>
                <path id="Tracé_16" data-name="Tracé 16" d="M422.888,205.521l62.029,35.226h6.727l-62.009-35.226Z" transform="translate(-364.584 -205.521)" fill="#5e5e5e"/>
              </g>
            </g>
            <g id="Groupe_19" data-name="Groupe 19" transform="translate(278.525 68.324)">
              <path id="Tracé_17" data-name="Tracé 17" d="M614.6,329.517H471.008a7.666,7.666,0,0,1-7.667-7.667l.015-11.5H624.026l-.127,9.871A9.3,9.3,0,0,1,614.6,329.517Z" transform="translate(-463.341 -289.765)" fill="#cf8127"/>
              <rect id="Rectangle_12" data-name="Rectangle 12" width="26.067" height="7.885" transform="translate(87.919 18.205)" fill="#fff"/>
              <line id="Ligne_2" data-name="Ligne 2" x2="76.832" transform="translate(57.003 2.481)" fill="none" stroke="#000" stroke-linecap="round" stroke-linejoin="round" stroke-width="0.629"/>
              <line id="Ligne_3" data-name="Ligne 3" x2="50.497" transform="translate(71.026 8.347)" fill="none" stroke="#000" stroke-linecap="round" stroke-linejoin="round" stroke-width="0.629"/>
              <line id="Ligne_4" data-name="Ligne 4" x2="50.497" transform="translate(71.026 14.191)" fill="none" stroke="#000" stroke-linecap="round" stroke-linejoin="round" stroke-width="0.629"/>
              <rect id="Rectangle_13" data-name="Rectangle 13" width="43.797" height="15.075" rx="5.13" transform="translate(21.543 0)" fill="#fff"/>
              <g id="Groupe_18" data-name="Groupe 18" transform="translate(128.003)">
                <path id="Tracé_18" data-name="Tracé 18" d="M653.756,284.644H628.32a5.131,5.131,0,0,0-5.13,5.131v4.814a5.131,5.131,0,0,0,5.13,5.131h27.724C656.268,289.6,654.1,285.264,653.756,284.644Z" transform="translate(-623.189 -284.644)" fill="#fff"/>
              </g>
              <line id="Ligne_5" data-name="Ligne 5" x2="43.797" transform="translate(21.543 9.944)" fill="none" stroke="#000" stroke-linecap="round" stroke-linejoin="round" stroke-width="0.629"/>
              <line id="Ligne_6" data-name="Ligne 6" x2="32.681" transform="translate(128.004 9.944)" fill="none" stroke="#000" stroke-linecap="round" stroke-linejoin="round" stroke-width="0.629"/>
            </g>
          </g>
        </g>
        <g id="Groupe_58" data-name="Groupe 58" transform="translate(39.066)">
          <g id="Groupe_22" data-name="Groupe 22" transform="translate(147.265)">
            <path id="Tracé_19" data-name="Tracé 19" d="M274.7,20.76c0-14.93-15.76-26.179-31.552-18.018a19.69,19.69,0,0,0-6.908,6.751c-4.133,7.476-3.761,14.85-.791,20.675h-.022l.168.3c.076.143.156.284.235.425l18.108,32.746,18.14-32.8c.062-.111.124-.219.183-.332l.083-.151h-.01A20.657,20.657,0,0,0,274.7,20.76Z" transform="translate(-233.175 0)" fill="#f6b26b"/>
            <ellipse id="Ellipse_13" data-name="Ellipse 13" cx="9.197" cy="9.197" rx="9.197" ry="9.197" transform="translate(11.563 11.344)" fill="#fff"/>
          </g>
          <g id="Groupe_57" data-name="Groupe 57" transform="translate(0 29.738)">
            <g id="Groupe_51" data-name="Groupe 51" transform="translate(43.506)">
              <g id="Groupe_33" data-name="Groupe 33" transform="translate(14.651 110.467)">
                <g id="Groupe_26" data-name="Groupe 26" transform="translate(30.399)">
                  <g id="Groupe_25" data-name="Groupe 25" transform="translate(0.974 119.968)">
                    <g id="Groupe_24" data-name="Groupe 24" transform="translate(0 18.259)">
                      <path id="Tracé_20" data-name="Tracé 20" d="M163.7,347.7h12.951l21.418,11.457-36.827-.439Z" transform="translate(-161.109 -347.7)" fill="#101010"/>
                      <g id="Groupe_23" data-name="Groupe 23" transform="translate(0 11.018)">
                        <path id="Tracé_21" data-name="Tracé 21" d="M161.077,366.306l.128-4.846,36.827.439-.128,4.846Z" transform="translate(-161.077 -361.459)" fill="#fff"/>
                      </g>
                      <line id="Ligne_7" data-name="Ligne 7" x1="4.243" y2="1.16" transform="translate(20.245 4.22)" fill="none" stroke="#fff" stroke-linecap="round" stroke-linejoin="round" stroke-width="1.166"/>
                      <line id="Ligne_8" data-name="Ligne 8" x1="4.243" y2="1.16" transform="translate(16.097 2.091)" fill="none" stroke="#fff" stroke-linecap="round" stroke-linejoin="round" stroke-width="1.166"/>
                    </g>
                    <path id="Tracé_22" data-name="Tracé 22" d="M178.628,324.9h-13.2l-1.121,18.259h13.2Z" transform="translate(-161.72 -324.899)" fill="#ebb28b"/>
                  </g>
                  <path id="Tracé_23" data-name="Tracé 23" d="M186.379,175.084l-8.139,132.357h-18.38l3.175-132.357Z" transform="translate(-159.861 -175.084)" fill="#8e7cc3"/>
                </g>
                <g id="Groupe_32" data-name="Groupe 32">
                  <g id="Groupe_29" data-name="Groupe 29" transform="translate(1.609 119.968)">
                    <g id="Groupe_28" data-name="Groupe 28" transform="translate(0 18.259)">
                      <path id="Tracé_24" data-name="Tracé 24" d="M126.527,347.7h12.951L160.9,359.157l-36.827-.439Z" transform="translate(-123.94 -347.7)" fill="#101010"/>
                      <g id="Groupe_27" data-name="Groupe 27" transform="translate(0 11.018)">
                        <path id="Tracé_25" data-name="Tracé 25" d="M123.909,366.306l.128-4.846,36.827.439-.128,4.846Z" transform="translate(-123.909 -361.459)" fill="#fff"/>
                      </g>
                      <line id="Ligne_9" data-name="Ligne 9" x1="4.243" y2="1.16" transform="translate(20.245 4.22)" fill="none" stroke="#fff" stroke-linecap="round" stroke-linejoin="round" stroke-width="1.166"/>
                      <line id="Ligne_10" data-name="Ligne 10" x1="4.243" y2="1.16" transform="translate(16.098 2.091)" fill="none" stroke="#fff" stroke-linecap="round" stroke-linejoin="round" stroke-width="1.166"/>
                    </g>
                    <path id="Tracé_26" data-name="Tracé 26" d="M142.771,324.9h-13.2l-2.432,18.259h13.2Z" transform="translate(-124.552 -324.899)" fill="#ebb28b"/>
                  </g>
                  <g id="Groupe_31" data-name="Groupe 31">
                    <path id="Tracé_27" data-name="Tracé 27" d="M139.9,175.084l-18,132.357h20.093l26.158-132.357Z" transform="translate(-121.9 -175.084)" fill="#8e7cc3"/>
                    <g id="Groupe_30" data-name="Groupe 30" transform="translate(15.359 10.565)">
                      <path id="Tracé_28" data-name="Tracé 28" d="M161.639,252.11l10.271-51.972,7.5-4.886" transform="translate(-145.176 -189.667)" fill="none" stroke="#171717" stroke-linecap="round" stroke-linejoin="round" stroke-width="0.511"/>
                      <line id="Ligne_11" data-name="Ligne 11" y1="8.836" x2="11.224" fill="none" stroke="#171717" stroke-linecap="round" stroke-linejoin="round" stroke-width="0.511"/>
                    </g>
                  </g>
                </g>
              </g>
              <g id="Groupe_47" data-name="Groupe 47" transform="translate(0 45.576)">
                <g id="Groupe_41" data-name="Groupe 41" transform="translate(60.903)">
                  <g id="Groupe_35" data-name="Groupe 35" transform="translate(0 4.401)">
                    <path id="Tracé_29" data-name="Tracé 29" d="M193.783,111.594l20.448,26.849a7.047,7.047,0,0,1,.335,9h0a7.047,7.047,0,0,1-10.606.646l-21.976-25.414a8.094,8.094,0,0,1-.223-11.121h0A8.094,8.094,0,0,1,193.783,111.594Z" transform="translate(-179.657 -101.408)" fill="#ebb28b"/>
                    <g id="Groupe_34" data-name="Groupe 34" transform="translate(4.109)">
                      <path id="Tracé_30" data-name="Tracé 30" d="M184.789,99.545s10,1.248,17.65,16.083l-11.756,14.095Z" transform="translate(-184.789 -99.545)" fill="#351c75"/>
                    </g>
                  </g>
                  <g id="Groupe_40" data-name="Groupe 40" transform="translate(20.554)">
                    <g id="Groupe_36" data-name="Groupe 36" transform="translate(0 24.957)">
                      <path id="Tracé_31" data-name="Tracé 31" d="M205.324,142.8l28.031-17.581,5.58,5.762L218.614,151.8Z" transform="translate(-205.324 -125.215)" fill="#ebb28b"/>
                    </g>
                    <g id="Groupe_39" data-name="Groupe 39" transform="translate(26.203)">
                      <g id="Groupe_37" data-name="Groupe 37" transform="translate(0.338 8.487)">
                        <path id="Tracé_32" data-name="Tracé 32" d="M244.45,111.5l13.9,4.055s0,10.772-12.821,12.72a12.093,12.093,0,0,1-4.4-1.585l-2.133-6.082a2.592,2.592,0,0,1,.153-3.316Z" transform="translate(-238.468 -106.012)" fill="#ebb28b"/>
                        <path id="Tracé_33" data-name="Tracé 33" d="M244.5,111.925l4.917-6.455a2.011,2.011,0,0,1,2.807-.425h0a2.052,2.052,0,0,1,.3,2.761l-4.541,7.081Z" transform="translate(-239.67 -104.647)" fill="#e9b0a0"/>
                        <path id="Tracé_34" data-name="Tracé 34" d="M251.924,118.548l5.907-5.83a1.914,1.914,0,0,1,2.724-.188h0a2.04,2.04,0,0,1-.095,2.718l-5.636,6.471Z" transform="translate(-241.149 -106.121)" fill="#e9b0a0"/>
                        <path id="Tracé_35" data-name="Tracé 35" d="M249.083,113.665l5.581-5.514a1.961,1.961,0,0,1,2.808-.079h0a2.107,2.107,0,0,1-.03,2.806l-5.287,6.188Z" transform="translate(-240.583 -105.219)" fill="#e9b0a0"/>
                      </g>
                      <g id="Groupe_38" data-name="Groupe 38" transform="translate(2.732)">
                        <path id="Tracé_36" data-name="Tracé 36" d="M258.845,94.05l2.213.143v14.526l-7.766,12.161-2.361-.192,4.166-15.276Z" transform="translate(-243.344 -94.049)" fill="#36438d"/>
                        <path id="Tracé_37" data-name="Tracé 37" d="M244.478,114.249l6.491,6.119a1.466,1.466,0,0,0,2.3-.02l14.133-17.64a1.22,1.22,0,0,0-.014-1.51l-6.809-6.514a1.219,1.219,0,0,0-1.914.017l-14.205,17.733A1.465,1.465,0,0,0,244.478,114.249Z" transform="translate(-241.995 -94.085)" fill="#050907"/>
                        <path id="Tracé_38" data-name="Tracé 38" d="M241.781,114.07l6.491,6.119a1.466,1.466,0,0,0,2.3-.02l14.132-17.64a1.219,1.219,0,0,0-.013-1.51L257.883,94.5a1.219,1.219,0,0,0-1.914.017l-14.205,17.733A1.464,1.464,0,0,0,241.781,114.07Z" transform="translate(-241.457 -94.049)" fill="#fff"/>
                      </g>
                      <path id="Tracé_39" data-name="Tracé 39" d="M240.41,121.842a5.617,5.617,0,0,1-2.325-5.358,16.977,16.977,0,0,1,2.483-6.944c.677-1.273,1.463-1.889,2.567-1.734h0a2.094,2.094,0,0,1,1.747,2.321l-1.244,2.759s1.369,3.5-1.5,8.8Z" transform="translate(-238.046 -96.785)" fill="#ebb28b"/>
                    </g>
                  </g>
                </g>
                <g id="Groupe_42" data-name="Groupe 42" transform="translate(29.767 0.904)">
                  <path id="Tracé_40" data-name="Tracé 40" d="M157.213,95.829a69.646,69.646,0,0,0-12.952,4.485c-3.394,1.712-3.77,5.411-3.343,9.188l2.739,49.663h38.92l2.723-47.98a11.882,11.882,0,0,0-7.713-12.12c-5.6-1.9-9.133-3.714-12.111-3.887Z" transform="translate(-140.775 -95.178)" fill="#351c75"/>
                  <line id="Ligne_12" data-name="Ligne 12" y1="14.597" x2="0.826" transform="translate(43.7 16.007)" fill="#351c75" stroke="#171717" stroke-linecap="round" stroke-linejoin="round" stroke-width="0.511"/>
                  <path id="Tracé_41" data-name="Tracé 41" d="M160.186,95.991,155.7,97.224s3.333,6.422,15.439,5.336c8.491-.762,5.07-4.916,5.07-4.916l-4.223-1.529Z" transform="translate(-143.748 -95.34)" fill="#351c75"/>
                </g>
                <g id="Groupe_46" data-name="Groupe 46" transform="translate(0 3.753)">
                  <g id="Groupe_43" data-name="Groupe 43" transform="translate(1.924 26.314)">
                    <path id="Tracé_42" data-name="Tracé 42" d="M113.506,131.6l20.1,29.588-5.413,5.92-22.185-21.737Z" transform="translate(-106.006 -131.597)" fill="#ebb28b"/>
                    <path id="Tracé_43" data-name="Tracé 43" d="M157.589,168.086l-8.6-4.371.844-1.887a1.669,1.669,0,0,0-2.542-2l-8.467,6.648-5.118,6.188c4.644,3.977,7.679,3.928,9.428,3.157.2.068.406.143.613.2l7.145,2.049a1.361,1.361,0,0,0,1.754-.636c.235-.466.318-1.213-1.057-1.911l1.375.7a1.413,1.413,0,0,0,1.837-.692c.307-.608-.07-1.411-.877-1.936l1.052.413a1.452,1.452,0,0,0,1.946-.854,1.505,1.505,0,0,0-.786-1.807l-1.519-.769,1.8.437a1.575,1.575,0,0,0,2.029-1.021A1.633,1.633,0,0,0,157.589,168.086Z" transform="translate(-111.525 -137.151)" fill="#ebb28b"/>
                    <line id="Ligne_13" data-name="Ligne 13" x1="5.082" y1="2.398" transform="translate(38.471 31.24)" fill="none" stroke="#171717" stroke-linecap="round" stroke-linejoin="round" stroke-width="0.332"/>
                    <line id="Ligne_14" data-name="Ligne 14" x1="4.9" y1="2.041" transform="translate(37.286 34.309)" fill="none" stroke="#171717" stroke-linecap="round" stroke-linejoin="round" stroke-width="0.332"/>
                    <line id="Ligne_15" data-name="Ligne 15" x1="4.152" y1="1.637" transform="translate(36.37 36.911)" fill="none" stroke="#171717" stroke-linecap="round" stroke-linejoin="round" stroke-width="0.332"/>
                  </g>
                  <g id="Groupe_45" data-name="Groupe 45">
                    <path id="Tracé_44" data-name="Tracé 44" d="M141.216,117.981l-25.557,22.042a7.046,7.046,0,0,1-8.958.88h0a7.047,7.047,0,0,1-1.29-10.547l24.032-23.48a8.094,8.094,0,0,1,11.087-.9h0A8.094,8.094,0,0,1,141.216,117.981Z" transform="translate(-103.603 -99.823)" fill="#ebb28b"/>
                    <g id="Groupe_44" data-name="Groupe 44" transform="translate(14.485)">
                      <path id="Tracé_45" data-name="Tracé 45" d="M145.972,98.736s-13.338,2.607-24.28,16.478l11.6,15.116,16.627-11.906Z" transform="translate(-121.692 -98.736)" fill="#351c75"/>
                      <line id="Ligne_16" data-name="Ligne 16" y1="6.906" x2="9.644" transform="translate(17.24 20.646)" fill="#351c75" stroke="#171717" stroke-linecap="round" stroke-linejoin="round" stroke-width="0.511"/>
                    </g>
                  </g>
                </g>
              </g>
              <g id="Groupe_50" data-name="Groupe 50" transform="translate(35.046)">
                <path id="Tracé_46" data-name="Tracé 46" d="M185.772,43.926s4.5,4.023.767,13.058l-6.182-12.2Z" transform="translate(-153.94 -38.488)" fill="#20124d"/>
                <path id="Tracé_47" data-name="Tracé 47" d="M153.975,45.285s-5.259-.572-6.453,7.539S152.288,65.782,158.9,69.7Z" transform="translate(-147.368 -38.757)" fill="#20124d"/>
                <ellipse id="Ellipse_14" data-name="Ellipse 14" cx="15.087" cy="15.437" rx="15.087" ry="15.437" transform="translate(2.482 1.458)" fill="#20124d"/>
                <circle id="Ellipse_15" data-name="Ellipse 15" cx="3.827" cy="3.827" r="3.827" transform="matrix(0.444, -0.896, 0.896, 0.444, 25.816, 24.055)" fill="#dd8161"/>
                <path id="Tracé_48" data-name="Tracé 48" d="M173.088,75.318l.225,16.654-12.422-2.054.9-23.887Z" transform="translate(-150.062 -42.892)" fill="#ebb28b"/>
                <path id="Tracé_49" data-name="Tracé 49" d="M174.1,86.044l-8.725-8.532,9,1.581Z" transform="translate(-150.956 -45.179)" fill="#171717"/>
                <path id="Tracé_50" data-name="Tracé 50" d="M180.721,47.968s3.359,13.414,1.843,18.564-5.517,8.489-12.2,7.393c0,0-7.7-.147-9.98-11.5C156.961,45.319,172.436,39.059,180.721,47.968Z" transform="translate(-149.865 -38.488)" fill="#ebb28b"/>
                <path id="Tracé_51" data-name="Tracé 51" d="M162.232,63.553s4.93-11.323-.424-13.531c-1.607-.662-2.549-1-3.308,4.677s1.222,6.6,1.222,6.6Z" transform="translate(-149.552 -39.632)" fill="#20124d"/>
                <g id="Groupe_48" data-name="Groupe 48" transform="translate(5.657 20.005)">
                  <path id="Tracé_52" data-name="Tracé 52" d="M154.639,67.334a3.955,3.955,0,1,0,2.489-5.01A3.955,3.955,0,0,0,154.639,67.334Z" transform="translate(-154.432 -62.117)" fill="#ebb28b"/>
                  <path id="Tracé_53" data-name="Tracé 53" d="M157.1,65.651a2.9,2.9,0,0,1,3.74,2.247" transform="translate(-154.964 -62.796)" fill="none" stroke="#171717" stroke-linecap="round" stroke-linejoin="round" stroke-width="0.316"/>
                </g>
                <g id="Groupe_49" data-name="Groupe 49" transform="translate(17.611 14.057)">
                  <path id="Tracé_54" data-name="Tracé 54" d="M182.354,65.135l.858,2.9a.41.41,0,0,1-.305.476l-.972.156" transform="translate(-171.866 -56.771)" fill="none" stroke="#1e0b07" stroke-linecap="round" stroke-linejoin="round" stroke-width="0.299"/>
                  <path id="Tracé_55" data-name="Tracé 55" d="M174.916,63.779a.957.957,0,1,0,1.012-.9A.957.957,0,0,0,174.916,63.779Z" transform="translate(-170.467 -56.322)" fill="#171717"/>
                  <path id="Tracé_56" data-name="Tracé 56" d="M184.9,63.526a.887.887,0,1,0,.939-.833A.887.887,0,0,0,184.9,63.526Z" transform="translate(-172.457 -56.284)" fill="#171717"/>
                  <path id="Tracé_57" data-name="Tracé 57" d="M176.57,55.729l-7.209,2.3a8.7,8.7,0,0,1,3.681-2.855A3.907,3.907,0,0,1,176.57,55.729Z" transform="translate(-169.361 -54.749)" fill="#171717"/>
                  <path id="Tracé_58" data-name="Tracé 58" d="M183.411,55.5l3.795,1.224s-.652-1.622-1.747-1.967A2.2,2.2,0,0,0,183.411,55.5Z" transform="translate(-172.16 -54.69)" fill="#171717"/>
                  <path id="Tracé_59" data-name="Tracé 59" d="M176.109,70.44a13.531,13.531,0,0,0,5.308,1.352S177.807,74.413,176.109,70.44Z" transform="translate(-170.705 -57.828)" fill="#fff"/>
                </g>
                <path id="Tracé_60" data-name="Tracé 60" d="M159.643,47.656s4.01,3.455,13.936,1.455S183.9,40.383,182.7,38.019c0,0-3.652,2.836-9.67,1.285-3.356-.866-10.853-4.02-15.354-.641a5.125,5.125,0,0,0-2.079,5C155.886,45.136,156.869,46.817,159.643,47.656Z" transform="translate(-148.991 -37.136)" fill="#20124d"/>
              </g>
            </g>
            <g id="Groupe_56" data-name="Groupe 56" transform="translate(0 120.833)">
              <g id="Groupe_53" data-name="Groupe 53" transform="translate(10.68)">
                <path id="Rectangle_14" data-name="Rectangle 14" d="M10.017,0h5.8A10.017,10.017,0,0,1,25.837,10.017V65.364a0,0,0,0,1,0,0H0a0,0,0,0,1,0,0V10.017A10.017,10.017,0,0,1,10.017,0Z" transform="translate(7.515)" fill="none" stroke="#101010" stroke-miterlimit="10" stroke-width="2.297"/>
                <g id="Groupe_52" data-name="Groupe 52" transform="translate(0 129.682)">
                  <ellipse id="Ellipse_16" data-name="Ellipse 16" cx="5.999" cy="5.999" rx="5.999" ry="5.999" transform="matrix(0.229, -0.973, 0.973, 0.229, 0, 12.95)" fill="#101010"/>
                  <circle id="Ellipse_17" data-name="Ellipse 17" cx="5.999" cy="5.999" r="5.999" transform="translate(25.168 8.484) rotate(-45)" fill="#101010"/>
                </g>
              </g>
              <g id="Groupe_55" data-name="Groupe 55" transform="translate(0 46.357)">
                <rect id="Rectangle_15" data-name="Rectangle 15" width="62.226" height="90.402" rx="10.6" fill="#20124d"/>
                <g id="Groupe_54" data-name="Groupe 54" transform="translate(10.674 14.298)">
                  <rect id="Rectangle_16" data-name="Rectangle 16" width="2.272" height="62.487" fill="none" stroke="#171717" stroke-linecap="round" stroke-linejoin="round" stroke-width="0.491"/>
                  <rect id="Rectangle_17" data-name="Rectangle 17" width="2.272" height="62.487" transform="translate(12.083)" fill="none" stroke="#171717" stroke-linecap="round" stroke-linejoin="round" stroke-width="0.491"/>
                  <rect id="Rectangle_18" data-name="Rectangle 18" width="2.272" height="62.487" transform="translate(24.166)" fill="none" stroke="#171717" stroke-linecap="round" stroke-linejoin="round" stroke-width="0.491"/>
                  <rect id="Rectangle_19" data-name="Rectangle 19" width="2.272" height="62.487" transform="translate(36.249)" fill="none" stroke="#171717" stroke-linecap="round" stroke-linejoin="round" stroke-width="0.491"/>
                </g>
              </g>
            </g>
          </g>
        </g>
        <line id="Ligne_17" data-name="Ligne 17" x2="541.11" transform="translate(0 294.698)" fill="none" stroke="#000" stroke-linecap="round" stroke-linejoin="round" stroke-width="0.784"/>
      </g>
    </g>
    <g id="Composant_6_1" data-name="Composant 6 – 1" transform="translate(575.316 487.185)">
      <g id="Composant_5_1" data-name="Composant 5 – 1" transform="translate(5.668 9.919)">
        <circle id="Ellipse_1" data-name="Ellipse 1" cx="35.425" cy="35.425" r="35.425" fill="#8e7cc3"/>
      </g>
      <g id="Composant_4_1" data-name="Composant 4 – 1">
        <g id="Ellipse_2" data-name="Ellipse 2" fill="none" stroke="#351c75" stroke-width="3">
          <circle cx="35.425" cy="35.425" r="35.425" stroke="none"/>
          <circle cx="35.425" cy="35.425" r="33.925" fill="none"/>
        </g>
      </g>
    </g>
    <g id="Composant_2_2" data-name="Composant 2 – 2" transform="translate(466.864 210.763) rotate(-34)">
      <path id="blob-6-3" data-name="blob-6" d="M102.9-24.87C125.778.574,147.012,21.808,148.11,44.323c1.1,22.332-17.939,45.946-32.949,71.756-15.193,25.627-26.176,53.634-46.678,65.532-20.685,12.081-50.888,8.054-65.349-9.885-14.644-17.756-13.546-49.607-15.376-70.841-1.831-21.417-6.59-32.217-13.546-52.353C-32.927,28.4-42.08-.89-33.111-28.714c9.153-27.641,36.427-54,62.42-52.353C55.3-79.6,79.832-50.131,102.9-24.87Z" transform="translate(36.834 106.759)" fill="#d9d2e9"/>
      <path id="blob-6-4" data-name="blob-6" d="M102.9-24.87C125.778.574,147.012,21.808,148.11,44.323c1.1,22.332-17.939,45.946-32.949,71.756-15.193,25.627-26.176,53.634-46.678,65.532-20.685,12.081-50.888,8.054-65.349-9.885-14.644-17.756-13.546-49.607-15.376-70.841-1.831-21.417-6.59-32.217-13.546-52.353C-32.927,28.4-42.08-.89-33.111-28.714c9.153-27.641,36.427-54,62.42-52.353C55.3-79.6,79.832-50.131,102.9-24.87Z" transform="translate(79.919 85.903) rotate(9)" fill="none" stroke="#351c75" stroke-width="3"/>
    </g>
    <g id="Composant_1_1" data-name="Composant 1 – 1" transform="translate(212.199 750.092) rotate(43)">
      <path id="blob-5" d="M135.7-47.424c15.566,10.235,15.963,42.642,16.816,69.083.64,26.441,2.009,47.182-5.454,63.175-7.677,15.993-23.789,27.447-40,50.9s-32.335,58.921-54.085,66.811S3.878,191.193-10.2,167.1C-24.269,142.788-25.16,113.845-31.557,88.47-38.167,62.882-50.247,40.458-51.1,15.3c-1.066-25.162,9.285-53.523,29.542-62.266s50.407,2.244,80.9,1.818C89.622-45.578,120.344-57.659,135.7-47.424Z" transform="translate(76.396 76.289)" fill="#d9d2e9"/>
      <path id="blob-5-2" data-name="blob-5" d="M187.083,4.18c15.566,10.235,15.993,42.647,16.846,69.089.64,26.441,2.132,47.125-5.331,63.118-7.677,15.993-24.1,27.507-40.3,50.964s-32.2,58.853-53.949,66.743-49.258-11.515-63.331-35.611c-14.074-24.309-14.713-53.1-21.11-78.471C13.295,114.423.927,92.033.074,66.872-.992,41.71,9.457,13.349,29.714,4.607S80.038,6.526,110.531,6.1C140.81,5.673,171.73-6.055,187.083,4.18Z" transform="matrix(0.998, -0.07, 0.07, 0.998, 0, 14.265)" fill="none" stroke="#351c75" stroke-width="3"/>
    </g>
  </g>
</svg>
