<svg id="Fast_car-amico-2" data-name="Fast car-amico-2" xmlns="http://www.w3.org/2000/svg" width="327.785" height="299.651" viewBox="0 0 327.785 299.651">
  <g id="freepik--Floor--inject-67" transform="translate(0 109.783)">
    <path id="Tracé_1012" data-name="Tracé 1012" d="M49.052,26.683c16.141-9.11,34.732-15.88,54.531-20.321a277.037,277.037,0,0,1,123.334,1.2c19.656,4.826,38.033,11.958,53.89,21.382S308.5,49.2,316.325,60.7s11.641,23.69,11.454,35.836-4.374,24.252-12.553,35.6-20.35,21.936-36.5,31.047-34.751,15.88-54.552,20.321a272.035,272.035,0,0,1-61.774,6.349,270.872,270.872,0,0,1-61.551-7.552c-19.653-4.826-38.028-11.958-53.884-21.382s-27.69-20.249-35.511-31.754S-.183,105.476.007,93.33s4.379-24.253,12.557-35.6S32.909,35.793,49.052,26.683Z" fill="#e0e0e0"/>
    <path id="Tracé_1013" data-name="Tracé 1013" d="M46.967,26.651A179,179,0,0,1,71.4,15.294,219.829,219.829,0,0,1,98.314,7.073a256.01,256.01,0,0,1,28.622-5.1A279.332,279.332,0,0,1,156.483,0l169.2,96.719a57.262,57.262,0,0,1-3.333,18.043,69.3,69.3,0,0,1-9.285,17.443,94.168,94.168,0,0,1-15.232,16.309,133.451,133.451,0,0,1-21.173,14.639,174.507,174.507,0,0,1-19.213,9.3,207.434,207.434,0,0,1-20.9,7.308c-7.2,2.105-14.621,3.88-22.186,5.325s-15.279,2.561-23.075,3.348L0,79.079A64.054,64.054,0,0,1,5.941,64.805,79.6,79.6,0,0,1,15.75,51.122,103.976,103.976,0,0,1,29.426,38.311,138.029,138.029,0,0,1,46.967,26.651Z" transform="translate(2.085 0.032)" fill="#f5f5f5"/>
  </g>
  <g id="freepik--Shadows--inject-67" transform="translate(56.335 115.546)">
    <path id="Tracé_1014" data-name="Tracé 1014" d="M.838,52.108l119.591,68.365q.406.233.828.433t.858.368q.436.167.883.3t.905.232l47.55,10.338a6.468,6.468,0,0,0,4.558-.695L230.9,100.638a1.619,1.619,0,0,0,.5-2.4l-21.01-27.7L87.935,0,.845,49.259a1.626,1.626,0,0,0-.007,2.849Z" transform="translate(0 27.11)" opacity="0.1"/>
    <path id="Tracé_1015" data-name="Tracé 1015" d="M3.327,1.813a13.646,13.646,0,0,1,3.7-1.38,18.779,18.779,0,0,1,8.37.08,13.447,13.447,0,0,1,3.659,1.453,7.508,7.508,0,0,1,2.412,2.157,4.183,4.183,0,0,1,.778,2.431,4.219,4.219,0,0,1-.852,2.414,7.616,7.616,0,0,1-2.477,2.106,13.627,13.627,0,0,1-3.7,1.379,18.474,18.474,0,0,1-4.194.431,18.4,18.4,0,0,1-4.178-.512,13.45,13.45,0,0,1-3.656-1.45A7.488,7.488,0,0,1,.779,8.768,4.188,4.188,0,0,1,0,6.336,4.222,4.222,0,0,1,.851,3.92,7.6,7.6,0,0,1,3.327,1.813Z" transform="translate(131.206)" opacity="0.1"/>
    <path id="Tracé_1016" data-name="Tracé 1016" d="M3.945,2.145A16.111,16.111,0,0,1,8.33.511a22.272,22.272,0,0,1,9.922.1,15.943,15.943,0,0,1,4.334,1.722,8.891,8.891,0,0,1,2.856,2.556,4.965,4.965,0,0,1,.922,2.882,5,5,0,0,1-1.007,2.862,9.01,9.01,0,0,1-2.932,2.5,16.113,16.113,0,0,1-4.386,1.635,21.9,21.9,0,0,1-4.972.51,21.834,21.834,0,0,1-4.955-.607,15.959,15.959,0,0,1-4.335-1.718A8.85,8.85,0,0,1,.922,10.392,4.983,4.983,0,0,1,0,7.5,5.012,5.012,0,0,1,1.009,4.636,8.943,8.943,0,0,1,3.945,2.145Z" transform="translate(171.246 18.712)" opacity="0.1"/>
    <path id="Tracé_1017" data-name="Tracé 1017" d="M4.749,2.584A19.432,19.432,0,0,1,10.03.616,26.806,26.806,0,0,1,21.972.734a19.2,19.2,0,0,1,5.218,2.073,10.7,10.7,0,0,1,3.44,3.077,5.976,5.976,0,0,1,1.111,3.47A6.023,6.023,0,0,1,30.528,12.8,10.851,10.851,0,0,1,27,15.806a19.433,19.433,0,0,1-5.282,1.968,26.343,26.343,0,0,1-5.984.615,26.236,26.236,0,0,1-5.963-.732,19.2,19.2,0,0,1-5.219-2.073,10.692,10.692,0,0,1-3.439-3.077A5.972,5.972,0,0,1,0,9.037,6.028,6.028,0,0,1,1.216,5.59,10.863,10.863,0,0,1,4.749,2.584Z" transform="translate(217.846 44.959)" opacity="0.1"/>
  </g>
  <g id="freepik--Clouds--inject-67" transform="translate(230.595)">
    <path id="Tracé_1018" data-name="Tracé 1018" d="M21.434,2.556a7.238,7.238,0,0,0-2.3-.886,4.242,4.242,0,0,0-1.983.076,3.4,3.4,0,0,0-1.541.966,4.489,4.489,0,0,0-.973,1.783A9.546,9.546,0,0,0,11.165.624,4.387,4.387,0,0,0,9.39.012,2.444,2.444,0,0,0,7.938.3a2.428,2.428,0,0,0-.984,1.1,4.34,4.34,0,0,0-.368,1.835V4.564L3.2,2.611a3.077,3.077,0,0,0-1.244-.431,1.705,1.705,0,0,0-1.017.2,1.7,1.7,0,0,0-.687.772A3.043,3.043,0,0,0,0,4.438,7.016,7.016,0,0,0,3.182,9.955L31.827,26.49a3.09,3.09,0,0,0,1.244.428,1.711,1.711,0,0,0,1.017-.2,1.692,1.692,0,0,0,.687-.771,3.036,3.036,0,0,0,.255-1.284,7.016,7.016,0,0,0-3.182-5.516l-3.384-1.952V14.749a12.007,12.007,0,0,0-.542-3.479A16.809,16.809,0,0,0,24.18,4.78,12.184,12.184,0,0,0,21.434,2.556Z" transform="translate(22.003)" fill="#e6e6e6"/>
    <path id="Tracé_1019" data-name="Tracé 1019" d="M15.368,1.838A5.208,5.208,0,0,0,13.72,1.2a3.036,3.036,0,0,0-1.422.052,2.412,2.412,0,0,0-1.1.693A3.2,3.2,0,0,0,10.5,3.228,6.843,6.843,0,0,0,8.011.449,3.161,3.161,0,0,0,6.736.009a1.757,1.757,0,0,0-1.043.2A1.735,1.735,0,0,0,4.987,1a3.1,3.1,0,0,0-.262,1.315V3.27L2.3,1.88a2.3,2.3,0,0,0-.9-.293,1.258,1.258,0,0,0-.731.142,1.192,1.192,0,0,0-.493.546A2.145,2.145,0,0,0,0,3.193,5.009,5.009,0,0,0,2.286,7.146L22.823,19.02a2.3,2.3,0,0,0,.9.293,1.261,1.261,0,0,0,.732-.142,1.2,1.2,0,0,0,.495-.546,2.154,2.154,0,0,0,.185-.918,5.071,5.071,0,0,0-2.286-3.96l-2.432-1.39V10.593a11.115,11.115,0,0,0-5.044-8.754Z" transform="translate(0 11.549)" fill="#e6e6e6"/>
  </g>
  <g id="freepik--Trees--inject-67" transform="translate(172.233 35.115)">
    <path id="Tracé_1020" data-name="Tracé 1020" d="M0,7.279l1.5-.361L5.669,15.3V.637h0a.528.528,0,0,1,.32-.452,1.653,1.653,0,0,1,1.522,0,.549.549,0,0,1,.313.438h0V12.955L13,4.437l1.132.9L7.823,15.283V46.693h0a.549.549,0,0,1-.32.452,1.7,1.7,0,0,1-1.528,0,.535.535,0,0,1-.306-.431h0V18.451h0Z" transform="translate(19.358 39.943)" fill="#f6b26b"/>
    <path id="Tracé_1021" data-name="Tracé 1021" d="M0,7.279l1.5-.361L5.669,15.3V.637h0a.528.528,0,0,1,.32-.452,1.653,1.653,0,0,1,1.522,0,.549.549,0,0,1,.313.438h0V12.955L13,4.437l1.132.9L7.823,15.283V46.693h0a.549.549,0,0,1-.32.452,1.7,1.7,0,0,1-1.528,0,.535.535,0,0,1-.306-.431h0V18.451h0Z" transform="translate(19.358 39.943)" fill="#20124d" opacity="0.998"/>
    <path id="Ellipse_201" data-name="Ellipse 201" d="M10.3,0A10.264,10.264,0,1,0,14.3.809,10.264,10.264,0,0,0,10.3,0Z" transform="translate(28.605 27.393)" fill="#f6b26b"/>
    <path id="Ellipse_202" data-name="Ellipse 202" d="M10.3,0A10.264,10.264,0,1,0,14.3.809,10.264,10.264,0,0,0,10.3,0Z" transform="translate(28.605 27.393)" opacity="0.1"/>
    <path id="Ellipse_203" data-name="Ellipse 203" d="M14.847,0a14.8,14.8,0,1,0,5.779,1.167A14.8,14.8,0,0,0,14.847,0Z" transform="translate(1.461 18.583)" fill="#f6b26b"/>
    <path id="Ellipse_204" data-name="Ellipse 204" d="M14.847,0a14.8,14.8,0,1,0,5.779,1.167A14.8,14.8,0,0,0,14.847,0Z" transform="translate(1.461 18.583)" fill="#d9d2e9"/>
    <path id="Tracé_1022" data-name="Tracé 1022" d="M2.605,24a4.821,4.821,0,0,0,1.381-.748,6.518,6.518,0,0,0,1.119-1.116A10.126,10.126,0,0,0,6,20.781c.268-.476.506-.97.721-1.459A35.2,35.2,0,0,0,8.368,14.7,35.2,35.2,0,0,0,9.35,9.927,35.2,35.2,0,0,0,9.662,5.06,35.2,35.2,0,0,0,9.3.174Q9.579.13,9.863.1t.569-.055Q10.717.02,11,.01T11.575,0A14.849,14.849,0,1,1,0,24.136,5.26,5.26,0,0,0,2.605,24Z" transform="translate(4.733 18.59)" opacity="0.2"/>
    <path id="Tracé_1023" data-name="Tracé 1023" d="M10.29,0a10.248,10.248,0,0,1,5.982,1.931,22.322,22.322,0,0,1-.2,2.565,22.323,22.323,0,0,1-.488,2.517,22.325,22.325,0,0,1-.773,2.444A22.318,22.318,0,0,1,13.764,11.8q-.168.279-.319.567t-.283.585q-.132.3-.246.6t-.208.616a2.7,2.7,0,0,0,.486,2.453,2.04,2.04,0,0,0,.668.472,2.7,2.7,0,0,0,.8.21,3.94,3.94,0,0,0,.857,0,5.139,5.139,0,0,0,.844-.165q.354-.1.7-.235t.669-.3q.327-.166.638-.362t.6-.422A10.291,10.291,0,1,1,10.29,0Z" transform="translate(28.619 27.393)" fill="#d9d2e9"/>
    <path id="Ellipse_205" data-name="Ellipse 205" d="M38.228,12.062a18.5,18.5,0,1,0,4.542,5.8A18.5,18.5,0,0,0,38.228,12.062Z" fill="#d9d2e9"/>
    <path id="Tracé_1024" data-name="Tracé 1024" d="M13.923,22.281a18.5,18.5,0,0,0,7.223-1.458,18.623,18.623,0,0,0,9.876-9.876,18.5,18.5,0,0,0,1.458-7.223q0-.469-.022-.937t-.07-.934q-.047-.466-.118-.93T32.105,0A18.558,18.558,0,1,1,0,15.98a18.493,18.493,0,0,0,13.923,6.3Z" transform="translate(7.922 14.456)" opacity="0.2"/>
    <path id="Tracé_1025" data-name="Tracé 1025" d="M0,8.609l1.772-.431,4.947,9.935V.744h0A.632.632,0,0,1,7.1.216a1.994,1.994,0,0,1,1.806,0A.695.695,0,0,1,9.275.73h0V15.355l6.142-10.1,1.334,1.056L9.275,18.128V55.353h0a.646.646,0,0,1-.382.535,1.973,1.973,0,0,1-1.806,0,.639.639,0,0,1-.368-.514h0V21.886h0Z" transform="translate(60.155 51.153)" fill="#f6b26b"/>
    <path id="Tracé_1026" data-name="Tracé 1026" d="M0,8.609l1.772-.431,4.947,9.935V.744h0A.632.632,0,0,1,7.1.216a1.994,1.994,0,0,1,1.806,0A.695.695,0,0,1,9.275.73h0V15.355l6.142-10.1,1.334,1.056L9.275,18.128V55.353h0a.646.646,0,0,1-.382.535,1.973,1.973,0,0,1-1.806,0,.639.639,0,0,1-.368-.514h0V21.886h0Z" transform="translate(60.155 51.153)" fill="#20124d"/>
    <path id="Ellipse_206" data-name="Ellipse 206" d="M12.2,0a12.162,12.162,0,1,0,4.749.959A12.162,12.162,0,0,0,12.2,0Z" transform="translate(71.111 36.258)" fill="#f6b26b"/>
    <path id="Ellipse_207" data-name="Ellipse 207" d="M12.2,0a12.162,12.162,0,1,0,4.749.959A12.162,12.162,0,0,0,12.2,0Z" transform="translate(71.111 36.258)" fill="#d9d2e9"/>
    <path id="Ellipse_208" data-name="Ellipse 208" d="M17.6,0a17.543,17.543,0,1,0,6.85,1.383A17.543,17.543,0,0,0,17.6,0Z" transform="translate(38.937 25.823)" fill="#f6b26b"/>
    <path id="Ellipse_209" data-name="Ellipse 209" d="M17.6,0a17.543,17.543,0,1,0,6.85,1.383A17.543,17.543,0,0,0,17.6,0Z" transform="translate(38.937 25.823)" fill="#d9d2e9"/>
    <path id="Tracé_1027" data-name="Tracé 1027" d="M3.106,28.465a5.594,5.594,0,0,0,1.636-.88,7.619,7.619,0,0,0,1.324-1.326,11.843,11.843,0,0,0,1.06-1.612,19.2,19.2,0,0,0,.843-1.74,41.685,41.685,0,0,0,1.947-5.473,41.684,41.684,0,0,0,1.164-5.663A41.688,41.688,0,0,0,11.449,6,41.681,41.681,0,0,0,11.012.208q.335-.052.672-.092t.675-.065q.338-.026.677-.039T13.715,0A17.6,17.6,0,1,1,0,28.611a6.253,6.253,0,0,0,3.106-.146Z" transform="translate(42.8 25.809)" opacity="0.1"/>
    <path id="Tracé_1028" data-name="Tracé 1028" d="M12.206.007A12.151,12.151,0,0,1,19.3,2.292a26.49,26.49,0,0,1-.235,3.039,26.493,26.493,0,0,1-.58,2.983,26.492,26.492,0,0,1-.918,2.9,26.491,26.491,0,0,1-1.248,2.781q-.2.331-.378.673t-.335.695q-.157.352-.291.714t-.246.732a3.188,3.188,0,0,0,.577,2.911,2.408,2.408,0,0,0,.789.556,3.225,3.225,0,0,0,.946.248,4.725,4.725,0,0,0,1.016,0,6.185,6.185,0,0,0,1-.191q.42-.121.826-.281t.794-.357q.388-.2.757-.431t.714-.5A12.2,12.2,0,1,1,12.206,0Z" transform="translate(71.105 36.251)" opacity="0.1"/>
    <path id="Ellipse_210" data-name="Ellipse 210" d="M37.4,8.57A21.928,21.928,0,1,0,44.61,13.5,21.927,21.927,0,0,0,37.4,8.57Z" transform="translate(39.315 6.633)" fill="#d9d2e9"/>
    <path id="Tracé_1029" data-name="Tracé 1029" d="M16.5,26.408a21.927,21.927,0,0,0,8.564-1.729,22.074,22.074,0,0,0,11.706-11.71A21.927,21.927,0,0,0,38.5,4.4q0-.555-.028-1.108t-.082-1.1q-.055-.551-.137-1.1T38.06,0A22,22,0,1,1,0,18.946a21.939,21.939,0,0,0,16.5,7.462Z" transform="translate(46.593 20.932)" opacity="0.1"/>
    <path id="Tracé_1030" data-name="Tracé 1030" d="M0,10.384l2.133-.521L8.087,21.806V.9h0A.757.757,0,0,1,8.546.261a2.4,2.4,0,0,1,2.175,0,.757.757,0,0,1,.438.618h0v17.6L18.55,6.347l1.612,1.278L11.13,21.82V58.253h0a.743.743,0,0,1-.459.639,2.376,2.376,0,0,1-2.175,0,.771.771,0,0,1-.438-.618h0V26.315h0Z" transform="translate(107.74 76.009)" fill="#f6b26b"/>
    <path id="Tracé_1031" data-name="Tracé 1031" d="M0,10.384l2.133-.521L8.087,21.806V.9h0A.757.757,0,0,1,8.546.261a2.4,2.4,0,0,1,2.175,0,.757.757,0,0,1,.438.618h0v17.6L18.55,6.347l1.612,1.278L11.13,21.82V58.253h0a.743.743,0,0,1-.459.639,2.376,2.376,0,0,1-2.175,0,.771.771,0,0,1-.438-.618h0V26.315h0Z" transform="translate(107.74 76.009)" fill="#20124d"/>
    <path id="Ellipse_211" data-name="Ellipse 211" d="M24.811,5.621a14.641,14.641,0,1,0,4.84,3.254A14.641,14.641,0,0,0,24.811,5.621Z" transform="translate(116.414 53.598)" fill="#f6b26b"/>
    <path id="Ellipse_212" data-name="Ellipse 212" d="M24.811,5.621a14.641,14.641,0,1,0,4.84,3.254A14.641,14.641,0,0,0,24.811,5.621Z" transform="translate(116.414 53.598)" fill="#d9d2e9"/>
    <path id="Ellipse_213" data-name="Ellipse 213" d="M21.177,0A21.11,21.11,0,1,0,29.42,1.664,21.11,21.11,0,0,0,21.177,0Z" transform="translate(82.207 45.54)" fill="#f6b26b"/>
    <path id="Ellipse_214" data-name="Ellipse 214" d="M21.177,0A21.11,21.11,0,1,0,29.42,1.664,21.11,21.11,0,0,0,21.177,0Z" transform="translate(82.207 45.54)" fill="#d9d2e9"/>
    <path id="Tracé_1032" data-name="Tracé 1032" d="M3.738,34.238a6.735,6.735,0,0,0,1.968-1.056,9.225,9.225,0,0,0,1.6-1.591,14.47,14.47,0,0,0,1.284-1.935c.382-.681.722-1.388,1.03-2.088a50.187,50.187,0,0,0,2.344-6.587,50.192,50.192,0,0,0,1.4-6.816,50.191,50.191,0,0,0,.446-6.944A50.186,50.186,0,0,0,13.284.25q.4-.063.809-.11T14.9.062q.407-.031.815-.047T16.535,0A21.186,21.186,0,1,1,0,34.461a7.413,7.413,0,0,0,3.738-.222Z" transform="translate(86.848 45.513)" opacity="0.2"/>
    <path id="Tracé_1033" data-name="Tracé 1033" d="M14.684,0a14.625,14.625,0,0,1,8.539,2.779,31.876,31.876,0,0,1-.282,3.658,31.876,31.876,0,0,1-.7,3.59,31.875,31.875,0,0,1-1.1,3.487,31.876,31.876,0,0,1-1.5,3.348q-.241.4-.457.812t-.4.839q-.189.426-.351.863t-.3.884a3.855,3.855,0,0,0,.695,3.474,2.907,2.907,0,0,0,.952.671,3.882,3.882,0,0,0,1.14.3,5.67,5.67,0,0,0,1.225,0,7.4,7.4,0,0,0,1.206-.232q.506-.146.995-.34T25.3,23.7q.467-.239.91-.522t.857-.609A14.683,14.683,0,1,1,14.691,0Z" transform="translate(120.923 58.102)" opacity="0.2"/>
    <path id="Ellipse_215" data-name="Ellipse 215" d="M26.478,0A26.395,26.395,0,1,0,36.784,2.081,26.394,26.394,0,0,0,26.478,0Z" transform="translate(90.885 30.679)" fill="#d9d2e9"/>
    <path id="Tracé_1034" data-name="Tracé 1034" d="M19.857,31.786A26.518,26.518,0,0,0,45.806,0,26.479,26.479,0,1,1,0,22.809a26.4,26.4,0,0,0,19.857,8.976Z" transform="translate(91.42 39.628)" opacity="0.2"/>
  </g>
  <g id="freepik--Car--inject-67" transform="translate(25.54 104.77)">
    <path id="Tracé_1035" data-name="Tracé 1035" d="M61.765,32.731,0,0,61.751,38.581a2.41,2.41,0,0,0,.985.343A1.307,1.307,0,0,0,64.1,38.15a2.389,2.389,0,0,0,.207-1.021,5.6,5.6,0,0,0-2.543-4.4Z" transform="translate(77.432)" fill="#f6b26b"/>
    <path id="Tracé_1036" data-name="Tracé 1036" d="M28.638,15.181,0,0,28.631,17.89a1.129,1.129,0,0,0,.46.161.619.619,0,0,0,.375-.076.632.632,0,0,0,.253-.292,1.178,1.178,0,0,0,.093-.488,2.577,2.577,0,0,0-1.174-2.015Z" transform="translate(91.918 14.535)" fill="#f6b26b"/>
    <path id="Tracé_1037" data-name="Tracé 1037" d="M35.76,18.946,0,0,35.746,22.33a1.422,1.422,0,0,0,.574.2.791.791,0,0,0,.471-.091.779.779,0,0,0,.318-.356,1.391,1.391,0,0,0,.117-.593,3.251,3.251,0,0,0-1.466-2.543Z" transform="translate(93.975 3.272)" fill="#f6b26b"/>
    <g id="Groupe_755" data-name="Groupe 755" transform="translate(77.432)">
      <path id="Tracé_1038" data-name="Tracé 1038" d="M61.765,32.731,0,0,61.751,38.581a2.41,2.41,0,0,0,.985.343A1.307,1.307,0,0,0,64.1,38.15a2.389,2.389,0,0,0,.207-1.021,5.6,5.6,0,0,0-2.543-4.4Z" fill="#d9d2e9"/>
      <path id="Tracé_1039" data-name="Tracé 1039" d="M28.638,15.181,0,0,28.631,17.89a1.129,1.129,0,0,0,.46.161.619.619,0,0,0,.375-.076.632.632,0,0,0,.253-.292,1.178,1.178,0,0,0,.093-.488,2.577,2.577,0,0,0-1.174-2.015Z" transform="translate(14.486 14.535)" fill="#d9d2e9"/>
      <path id="Tracé_1040" data-name="Tracé 1040" d="M35.76,18.946,0,0,35.746,22.33a1.422,1.422,0,0,0,.574.2.791.791,0,0,0,.471-.091.779.779,0,0,0,.318-.356,1.391,1.391,0,0,0,.117-.593,3.251,3.251,0,0,0-1.466-2.543Z" transform="translate(16.542 3.272)" fill="#d9d2e9"/>
    </g>
    <path id="Tracé_1041" data-name="Tracé 1041" d="M0,17.96l10.769-5.85V0L0,6.017Z" transform="translate(47.655 73.917)" fill="#f6b26b"/>
    <path id="Tracé_1042" data-name="Tracé 1042" d="M0,20.4l10.512-5.607V0L0,6.072Z" transform="translate(135.314 121.981)" fill="#f6b26b"/>
    <g id="Groupe_756" data-name="Groupe 756" transform="translate(47.655 73.917)" opacity="0.7">
      <path id="Tracé_1043" data-name="Tracé 1043" d="M0,17.96l10.769-5.85V0L0,6.017Z"/>
      <path id="Tracé_1044" data-name="Tracé 1044" d="M0,20.4l10.512-5.607V0L0,6.072Z" transform="translate(87.659 48.064)"/>
    </g>
    <path id="Tracé_1045" data-name="Tracé 1045" d="M18.7,26.32a18.89,18.89,0,0,0-.855-5.4,25.713,25.713,0,0,0-2.336-5.366,25.647,25.647,0,0,0-3.475-4.72,18.852,18.852,0,0,0-4.27-3.461A12.626,12.626,0,0,0,5.556,6.356,8.9,8.9,0,0,0,3.5,5.9a6.54,6.54,0,0,0-1.867.086A5.407,5.407,0,0,0,0,6.588L9.921.968A5.384,5.384,0,0,1,11.6.2,6.309,6.309,0,0,1,13.551.01a8.552,8.552,0,0,1,2.183.42A12.319,12.319,0,0,1,18.092,1.5a18.725,18.725,0,0,1,4.27,3.447,26.118,26.118,0,0,1,5.818,10.091,18.768,18.768,0,0,1,.847,5.409,12.188,12.188,0,0,1-.228,2.413,8.714,8.714,0,0,1-.653,2.007,6.455,6.455,0,0,1-1.03,1.567,5.33,5.33,0,0,1-1.361,1.093h0l-9.636,5.412a5.861,5.861,0,0,0,1.08-1.146A7.02,7.02,0,0,0,18.01,30.3a9.183,9.183,0,0,0,.512-1.826A12.529,12.529,0,0,0,18.7,26.32Z" transform="translate(139.35 123.661)" fill="#37474f"/>
    <path id="Tracé_1046" data-name="Tracé 1046" d="M0,0Z" transform="translate(139.344 130.249)" fill="#37474f"/>
    <path id="Tracé_1047" data-name="Tracé 1047" d="M3.245.716h0a5.407,5.407,0,0,1,1.629-.6A6.54,6.54,0,0,1,6.74.03,8.9,8.9,0,0,1,8.8.484,12.626,12.626,0,0,1,11.012,1.5,18.743,18.743,0,0,1,15.28,4.948a25.6,25.6,0,0,1,3.48,4.718,25.623,25.623,0,0,1,2.34,5.372,18.752,18.752,0,0,1,.848,5.409A12.461,12.461,0,0,1,21.77,22.6a9.19,9.19,0,0,1-.512,1.833,6.955,6.955,0,0,1-.813,1.493,5.658,5.658,0,0,1-1.081,1.134,5.244,5.244,0,0,1-1.691.9,6.079,6.079,0,0,1-2.009.266,8.364,8.364,0,0,1-2.264-.4,12.3,12.3,0,0,1-2.457-1.1,18.772,18.772,0,0,1-4.269-3.446,25.606,25.606,0,0,1-3.482-4.717A25.6,25.6,0,0,1,.849,13.187,18.744,18.744,0,0,1,0,7.775,12.653,12.653,0,0,1,.236,5.343a8.774,8.774,0,0,1,.649-2A6.334,6.334,0,0,1,1.9,1.788,5.176,5.176,0,0,1,3.245.716Z" transform="translate(136.099 129.574)" fill="#455a64"/>
    <path id="Ellipse_216" data-name="Ellipse 216" d="M16.31,9.377a17.818,17.818,0,0,0-2.548-3.4,13.15,13.15,0,0,0-2.9-2.3A7.5,7.5,0,0,0,7.973,2.664a4.119,4.119,0,0,0-2.542.491A4.119,4.119,0,0,0,3.745,5.121a7.5,7.5,0,0,0-.558,3.013,13.15,13.15,0,0,0,.568,3.657,17.818,17.818,0,0,0,1.694,3.9A17.818,17.818,0,0,0,8,19.09a13.15,13.15,0,0,0,2.9,2.3A7.5,7.5,0,0,0,13.786,22.4a3.932,3.932,0,0,0,4.228-2.457,7.5,7.5,0,0,0,.558-3.013A13.15,13.15,0,0,0,18,13.275,17.818,17.818,0,0,0,16.31,9.377Z" transform="translate(136.2 131.104)" fill="#455a64"/>
    <path id="Tracé_1048" data-name="Tracé 1048" d="M3.189,0A6.642,6.642,0,0,0,1.8,4.447,14.141,14.141,0,0,0,2.443,8.5,19.278,19.278,0,0,0,4.2,12.522,19.282,19.282,0,0,0,6.806,16.06,14.187,14.187,0,0,0,10,18.655a9.909,9.909,0,0,0,1.4.673,7.189,7.189,0,0,0,1.322.374,5.284,5.284,0,0,0,1.227.078,4.161,4.161,0,0,0,1.112-.214,3.993,3.993,0,0,1-1.294.985,4.252,4.252,0,0,1-1.619.4,5.852,5.852,0,0,1-1.877-.23,9,9,0,0,1-2.068-.895A14.177,14.177,0,0,1,5,17.231a19.248,19.248,0,0,1-2.611-3.537A19.19,19.19,0,0,1,.637,9.669,14.052,14.052,0,0,1,0,5.614,8.958,8.958,0,0,1,.227,3.539,5.966,5.966,0,0,1,.87,1.895,4.373,4.373,0,0,1,1.876.707,3.958,3.958,0,0,1,3.189,0Z" transform="translate(138.857 133.278)" fill="#e0e0e0"/>
    <path id="Tracé_1049" data-name="Tracé 1049" d="M8.215,18.866a14.22,14.22,0,0,1-3.2-2.594A19.286,19.286,0,0,1,2.4,12.734,19.2,19.2,0,0,1,.647,8.71,14.031,14.031,0,0,1,.01,4.658,6.642,6.642,0,0,1,1.4.212a4.381,4.381,0,0,1,1.109-.2A5.457,5.457,0,0,1,3.737.083,7.169,7.169,0,0,1,5.063.45a9.581,9.581,0,0,1,1.4.672,14.2,14.2,0,0,1,3.2,2.594,19.265,19.265,0,0,1,2.608,3.538,19.2,19.2,0,0,1,1.754,4.024,14.052,14.052,0,0,1,.636,4.052,6.642,6.642,0,0,1-1.39,4.446,4.452,4.452,0,0,1-1.112.2,5.5,5.5,0,0,1-1.227-.076,7.182,7.182,0,0,1-1.322-.366A9.576,9.576,0,0,1,8.215,18.866Z" transform="translate(140.639 133.066)" fill="#ebebeb"/>
    <path id="Tracé_1050" data-name="Tracé 1050" d="M6.26,7.979A8.056,8.056,0,0,0,5.936,6.1a8.061,8.061,0,0,0-.745-1.73,8.061,8.061,0,0,0-1.126-1.51A8.055,8.055,0,0,0,2.6,1.635,2.577,2.577,0,0,0,0,1.371L1.848.322A1.87,1.87,0,0,1,2.417.066,2.113,2.113,0,0,1,3.071,0,2.848,2.848,0,0,1,3.8.145,4.174,4.174,0,0,1,4.586.5a8.075,8.075,0,0,1,1.47,1.221,8.083,8.083,0,0,1,1.877,3.24,8.077,8.077,0,0,1,.328,1.882,2.542,2.542,0,0,1-1.1,2.369h0l-1.751.98A2.73,2.73,0,0,0,6.26,7.979Z" transform="translate(143.991 137.965)" fill="#e0e0e0"/>
    <path id="Tracé_1051" data-name="Tracé 1051" d="M0,0Z" transform="translate(143.991 139.336)" fill="#37474f"/>
    <path id="Tracé_1052" data-name="Tracé 1052" d="M1.1.235h0A2.577,2.577,0,0,1,3.7.5,8.055,8.055,0,0,1,5.163,1.72,8.062,8.062,0,0,1,6.289,3.23a8.06,8.06,0,0,1,.745,1.73,8.055,8.055,0,0,1,.324,1.881A2.73,2.73,0,0,1,6.5,9.058a1.831,1.831,0,0,1-.575.3,2.034,2.034,0,0,1-.672.087A2.781,2.781,0,0,1,4.5,9.309a4.185,4.185,0,0,1-.821-.369A8.059,8.059,0,0,1,.014,2.6,2.556,2.556,0,0,1,1.1.235Z" transform="translate(142.894 139.088)" fill="#fafafa"/>
    <path id="Tracé_1053" data-name="Tracé 1053" d="M18.7,26.32a18.888,18.888,0,0,0-.855-5.4,25.7,25.7,0,0,0-2.336-5.366,25.612,25.612,0,0,0-3.474-4.718A18.812,18.812,0,0,0,7.767,7.38,12.589,12.589,0,0,0,5.556,6.359,8.857,8.857,0,0,0,3.5,5.9a6.508,6.508,0,0,0-1.867.087A5.392,5.392,0,0,0,0,6.6L9.928.968A5.354,5.354,0,0,1,11.6.2,6.3,6.3,0,0,1,13.552.01a8.568,8.568,0,0,1,2.184.42A12.375,12.375,0,0,1,18.1,1.5a18.743,18.743,0,0,1,4.268,3.447,25.6,25.6,0,0,1,3.48,4.718,25.625,25.625,0,0,1,2.34,5.372,18.751,18.751,0,0,1,.848,5.409,12.236,12.236,0,0,1-.229,2.428,8.633,8.633,0,0,1-.655,2.005,6.4,6.4,0,0,1-1.033,1.559,5.386,5.386,0,0,1-1.362,1.088h0l-9.63,5.412A5.625,5.625,0,0,0,17.2,31.8a7.007,7.007,0,0,0,.81-1.5,9.3,9.3,0,0,0,.511-1.834A12.559,12.559,0,0,0,18.7,26.32Z" transform="translate(51.51 73.116)" fill="#37474f"/>
    <path id="Tracé_1054" data-name="Tracé 1054" d="M0,0Z" transform="translate(51.51 79.711)" fill="#37474f"/>
    <path id="Tracé_1055" data-name="Tracé 1055" d="M3.238.721h0a5.391,5.391,0,0,1,1.629-.6A6.508,6.508,0,0,1,6.733.03,8.854,8.854,0,0,1,8.794.485a12.589,12.589,0,0,1,2.211,1.022,18.739,18.739,0,0,1,4.27,3.446,25.555,25.555,0,0,1,3.48,4.716,25.588,25.588,0,0,1,2.339,5.37,18.758,18.758,0,0,1,.847,5.408,12.5,12.5,0,0,1-.178,2.157,9.2,9.2,0,0,1-.512,1.833,6.958,6.958,0,0,1-.811,1.491,5.67,5.67,0,0,1-1.077,1.133,5.25,5.25,0,0,1-1.695.9,6.073,6.073,0,0,1-2.011.265,8.368,8.368,0,0,1-2.265-.4,12.332,12.332,0,0,1-2.457-1.1,18.756,18.756,0,0,1-4.268-3.446,25.592,25.592,0,0,1-3.48-4.716,25.6,25.6,0,0,1-2.34-5.37A18.741,18.741,0,0,1,0,7.78,12.376,12.376,0,0,1,.228,5.368a8.717,8.717,0,0,1,.645-2A6.426,6.426,0,0,1,1.892,1.812,5.347,5.347,0,0,1,3.238.721Z" transform="translate(48.273 78.99)" fill="#455a64"/>
    <path id="Tracé_1056" data-name="Tracé 1056" d="M7.719,1.054a7.422,7.422,0,0,0-3-1.033A4.122,4.122,0,0,0,2.27.5,4.082,4.082,0,0,0,.614,2.363,7.292,7.292,0,0,0,0,5.452,13.139,13.139,0,0,0,.594,9.241,18,18,0,0,0,2.232,13a18.063,18.063,0,0,0,2.432,3.308,13.255,13.255,0,0,0,2.978,2.424,7.358,7.358,0,0,0,2.986,1.034,3.928,3.928,0,0,0,4.115-2.34,7.268,7.268,0,0,0,.618-3.093,13.2,13.2,0,0,0-.591-3.791,17.946,17.946,0,0,0-1.633-3.763,17.939,17.939,0,0,0-2.431-3.307A13.211,13.211,0,0,0,7.719,1.054Z" transform="translate(51.552 83.208)" fill="#455a64"/>
    <path id="Tracé_1057" data-name="Tracé 1057" d="M3.189,0A6.635,6.635,0,0,0,1.8,4.447,14.16,14.16,0,0,0,2.443,8.5,19.266,19.266,0,0,0,4.2,12.528a19.242,19.242,0,0,0,2.608,3.537,14.144,14.144,0,0,0,3.2,2.59,9.9,9.9,0,0,0,1.4.676,7.17,7.17,0,0,0,1.322.374,5.3,5.3,0,0,0,1.225.078,4.21,4.21,0,0,0,1.111-.211,3.994,3.994,0,0,1-1.294.981,4.268,4.268,0,0,1-1.619.4,5.874,5.874,0,0,1-1.877-.229,9.016,9.016,0,0,1-2.068-.891A14.23,14.23,0,0,1,5,17.236,19.618,19.618,0,0,1,.637,9.676,14.043,14.043,0,0,1,0,5.621,8.958,8.958,0,0,1,.226,3.552,5.993,5.993,0,0,1,.868,1.906,4.4,4.4,0,0,1,1.873.713,3.967,3.967,0,0,1,3.189,0Z" transform="translate(51.024 82.733)" fill="#e0e0e0"/>
    <path id="Tracé_1058" data-name="Tracé 1058" d="M8.216,18.862a14.177,14.177,0,0,1-3.2-2.59A19.248,19.248,0,0,1,2.4,12.735,19.19,19.19,0,0,1,.648,8.71,14.052,14.052,0,0,1,.01,4.654,6.635,6.635,0,0,1,1.4.207a4.416,4.416,0,0,1,1.108-.2A5.491,5.491,0,0,1,3.733.084,7.211,7.211,0,0,1,5.057.449a9.653,9.653,0,0,1,1.4.668A14.229,14.229,0,0,1,9.667,3.712,19.288,19.288,0,0,1,12.283,7.25a19.252,19.252,0,0,1,1.762,4.026,14.116,14.116,0,0,1,.645,4.056,6.634,6.634,0,0,1-1.39,4.447,4.623,4.623,0,0,1-1.127.2,5.521,5.521,0,0,1-1.234-.076,7.106,7.106,0,0,1-1.325-.367A9.5,9.5,0,0,1,8.216,18.862Z" transform="translate(52.799 82.526)" fill="#ebebeb"/>
    <path id="Tracé_1059" data-name="Tracé 1059" d="M6.267,7.977A8.077,8.077,0,0,0,5.941,6.1,8.083,8.083,0,0,0,5.2,4.367a8.083,8.083,0,0,0-1.125-1.51A8.077,8.077,0,0,0,2.605,1.634,2.626,2.626,0,0,0,0,1.37L1.848.328a1.862,1.862,0,0,1,.568-.26A2.1,2.1,0,0,1,3.071,0,2.831,2.831,0,0,1,3.8.144,4.167,4.167,0,0,1,4.586.5,8.077,8.077,0,0,1,6.051,1.724a8.083,8.083,0,0,1,1.87,3.24,8.076,8.076,0,0,1,.326,1.881,2.543,2.543,0,0,1-1.1,2.376h0L5.4,10.194a2.724,2.724,0,0,0,.868-2.216Z" transform="translate(56.151 87.422)" fill="#e0e0e0"/>
    <path id="Tracé_1060" data-name="Tracé 1060" d="M0,0Z" transform="translate(56.152 88.792)" fill="#37474f"/>
    <path id="Tracé_1061" data-name="Tracé 1061" d="M1.1.229h0A2.626,2.626,0,0,1,3.7.493,8.076,8.076,0,0,1,5.169,1.716a8.082,8.082,0,0,1,1.125,1.51,8.082,8.082,0,0,1,.745,1.73,8.075,8.075,0,0,1,.326,1.881A2.723,2.723,0,0,1,6.5,9.053a1.847,1.847,0,0,1-.575.3,2.04,2.04,0,0,1-.672.09A2.767,2.767,0,0,1,4.5,9.31a4.138,4.138,0,0,1-.821-.368A8.079,8.079,0,0,1,.014,2.6,2.563,2.563,0,0,1,1.1.229Z" transform="translate(55.054 88.563)" fill="#fafafa"/>
    <path id="Tracé_1062" data-name="Tracé 1062" d="M.049,39.31,67.976,0V13.437L0,52.775Z" transform="translate(189.513 107.926)" fill="#d9d2e9"/>
    <path id="Tracé_1063" data-name="Tracé 1063" d="M126.226,39.164,77.689,0,0,44.813,58.3,78.474Z" transform="translate(131.263 68.761)" fill="#f6b26b"/>
    <path id="Tracé_1064" data-name="Tracé 1064" d="M126.226,39.164,77.689,0,0,44.813,58.3,78.474Z" transform="translate(131.263 68.761)" fill="#d9d2e9"/>
    <path id="Tracé_1065" data-name="Tracé 1065" d="M0,39.338l5.127,2.974L16.209,35.92l.431-4.03L32.9,22.5,55.068,9.609l6.955-.236L73.1,2.974,67.976,0,31.042,21.413Z" transform="translate(189.513 121.363)" fill="#f6b26b"/>
    <path id="Tracé_1066" data-name="Tracé 1066" d="M11.082,0V2.23L0,8.629V6.4Z" transform="translate(251.535 124.336)" fill="#d9d2e9"/>
    <path id="Tracé_1067" data-name="Tracé 1067" d="M0,.236v2.23L6.955,2.23V0Z" transform="translate(244.58 130.735)" fill="#f6b26b"/>
    <path id="Tracé_1068" data-name="Tracé 1068" d="M0,22.281v2.23L38.428,2.23V0Z" transform="translate(206.153 130.971)" fill="#d9d2e9"/>
    <path id="Tracé_1069" data-name="Tracé 1069" d="M0,4.03V6.26L.431,2.23V0Z" transform="translate(205.722 153.253)" fill="#f6b26b"/>
    <path id="Tracé_1070" data-name="Tracé 1070" d="M0,6.392v2.23L11.082,2.23V0Z" transform="translate(194.64 157.282)" fill="#d9d2e9"/>
    <path id="Tracé_1071" data-name="Tracé 1071" d="M.021,0,0,2.223,5.148,5.2V2.974Z" transform="translate(189.492 160.701)" fill="#f6b26b"/>
    <path id="Tracé_1072" data-name="Tracé 1072" d="M0,39.338l5.127,2.974L16.209,35.92l.431-4.03L32.9,22.5,55.068,9.609l6.955-.236L73.1,2.974,67.976,0,31.042,21.413Z" transform="translate(189.513 121.363)" fill="#b4a7d6"/>
    <path id="Tracé_1073" data-name="Tracé 1073" d="M0,.236v2.23L6.955,2.23V0Z" transform="translate(244.58 130.735)" fill="#8e7cc3"/>
    <path id="Tracé_1074" data-name="Tracé 1074" d="M0,4.03V6.26L.431,2.23V0Z" transform="translate(205.722 153.253)" fill="#20124d"/>
    <path id="Tracé_1075" data-name="Tracé 1075" d="M.021,0,0,2.223,5.148,5.2V2.974Z" transform="translate(189.492 160.701)" fill="#8e7cc3"/>
    <path id="Tracé_1076" data-name="Tracé 1076" d="M.049,39.317,67.976,0V5.628L0,44.959Z" transform="translate(191.917 112.06)" fill="#455a64"/>
    <path id="Tracé_1077" data-name="Tracé 1077" d="M2.452,1.383,0,0V5.642L2.452,7.024Z" transform="translate(189.513 149.994)" fill="#263238"/>
    <path id="Tracé_1078" data-name="Tracé 1078" d="M0,39.3,67.928,0,70.38,1.362,2.453,40.679Z" transform="translate(189.513 110.698)" fill="#455a64"/>
    <path id="Tracé_1079" data-name="Tracé 1079" d="M0,39.3,67.928,0,70.38,1.362,2.453,40.679Z" transform="translate(189.513 110.698)" fill="#fff" opacity="0.2"/>
    <path id="Tracé_1080" data-name="Tracé 1080" d="M96.059,92.321,0,36.885,64.808,0l60.508,11.721,4.856,8.414,43.576,27.374Z" transform="translate(35.204 21.253)" fill="#f6b26b"/>
    <path id="Tracé_1081" data-name="Tracé 1081" d="M96.059,92.321,0,36.885,64.808,0l60.508,11.721,4.856,8.414,43.576,27.374Z" transform="translate(35.204 21.253)" fill="#d9d2e9"/>
    <path id="Tracé_1082" data-name="Tracé 1082" d="M78.863,19.1,6.031,61.147,0,27.909,48.328,0Z" transform="translate(125.233 49.898)" fill="#37474f"/>
    <path id="Tracé_1083" data-name="Tracé 1083" d="M63.189,2.842,19.975,28.11H0L48.7,0Z" transform="translate(68.338 27.895)" fill="#37474f"/>
    <path id="Tracé_1084" data-name="Tracé 1084" d="M12.527,7.177,0,0,8.858,1.438Z" transform="translate(150.446 32.821)" fill="#263238"/>
    <path id="Tracé_1085" data-name="Tracé 1085" d="M18.078,0,3.509,18.224,0,16.153,7.733,4.6Z" transform="translate(77.307 61.71)" fill="#263238"/>
    <path id="Tracé_1086" data-name="Tracé 1086" d="M58.361,33.655l-.062,15.7-30.883-7.1V36.92a20.058,20.058,0,0,0-.91-5.743,27.329,27.329,0,0,0-2.485-5.7,27.405,27.405,0,0,0-3.692-5.016A20.252,20.252,0,0,0,15.8,16.772a11.184,11.184,0,0,0-4.538-1.579,6.221,6.221,0,0,0-3.713.732,6.2,6.2,0,0,0-2.511,2.821,11.081,11.081,0,0,0-.931,4.689v5.336L0,26.436.063,0Z" transform="translate(131.201 113.581)" fill="#f6b26b"/>
    <path id="Tracé_1087" data-name="Tracé 1087" d="M42.756,24.63l-.062,26.436v.021L0,26.492.1,0Z" transform="translate(88.507 88.945)" fill="#f6b26b"/>
    <path id="Tracé_1088" data-name="Tracé 1088" d="M.195,0l53.4,30.806L53.5,57.3h0L35.954,47.2V41.853a20.03,20.03,0,0,0-.91-5.739,27.829,27.829,0,0,0-6.177-10.7,20.087,20.087,0,0,0-4.529-3.671A11.235,11.235,0,0,0,19.8,20.172a5.932,5.932,0,0,0-6.224,3.545,11.055,11.055,0,0,0-.931,4.685v5.336L8.532,31.369,0,16.682Z" transform="translate(35.01 58.138)" fill="#f6b26b"/>
    <path id="Tracé_1089" data-name="Tracé 1089" d="M58.361,33.655l-.062,15.7-30.883-7.1V36.92a20.058,20.058,0,0,0-.91-5.743,27.329,27.329,0,0,0-2.485-5.7,27.405,27.405,0,0,0-3.692-5.016A20.252,20.252,0,0,0,15.8,16.772a11.184,11.184,0,0,0-4.538-1.579,6.221,6.221,0,0,0-3.713.732,6.2,6.2,0,0,0-2.511,2.821,11.081,11.081,0,0,0-.931,4.689v5.336L0,26.436.063,0Z" transform="translate(131.201 113.581)" fill="#8e7cc3"/>
    <path id="Tracé_1090" data-name="Tracé 1090" d="M42.756,24.63l-.062,26.436L0,26.492.1,0Z" transform="translate(88.507 88.945)" fill="#8e7cc3"/>
    <path id="Tracé_1091" data-name="Tracé 1091" d="M.195,0l53.4,30.806L53.5,57.3,35.954,47.2V41.853a20.03,20.03,0,0,0-.91-5.739,27.829,27.829,0,0,0-6.177-10.7,20.087,20.087,0,0,0-4.529-3.671A11.235,11.235,0,0,0,19.8,20.172a5.932,5.932,0,0,0-6.224,3.545,11.055,11.055,0,0,0-.931,4.685v5.336L8.532,31.369,0,16.682Z" transform="translate(35.01 58.138)" fill="#8e7cc3"/>
    <path id="Tracé_1092" data-name="Tracé 1092" d="M32.779,12.777,10.345,0,0,19.294,37.726,41.325Z" transform="translate(88.771 66.9)" fill="#37474f"/>
    <path id="Tracé_1093" data-name="Tracé 1093" d="M41.269,8.171,3.689,0,0,2.161,33.537,19.725Z" transform="translate(43.771 58.138)" fill="#f6b26b"/>
    <path id="Tracé_1094" data-name="Tracé 1094" d="M41.269,8.171,3.689,0,0,2.161,33.537,19.725Z" transform="translate(43.771 58.138)" fill="#b4a7d6"/>
    <path id="Tracé_1095" data-name="Tracé 1095" d="M0,0,47.925,3.571,37.58,8.171Z" transform="translate(47.46 58.138)" fill="#f6b26b"/>
    <path id="Tracé_1096" data-name="Tracé 1096" d="M0,0,47.925,3.571,37.58,8.171Z" transform="translate(47.46 58.138)" fill="#8e7cc3"/>
    <path id="Tracé_1097" data-name="Tracé 1097" d="M78.683,17.578,30.348,45.48,0,28.02,48.537,0Z" transform="translate(91.203 30.181)" fill="#f6b26b"/>
    <path id="Tracé_1098" data-name="Tracé 1098" d="M78.683,17.578,30.348,45.48,0,28.02,48.537,0Z" transform="translate(91.203 30.181)" fill="#d9d2e9"/>
    <path id="Tracé_1099" data-name="Tracé 1099" d="M0,19.419,34.419,0,61.578,17.939,34.419,2.105,1.6,20.336Z" transform="translate(164.862 85.526)" opacity="0.2"/>
    <path id="Tracé_1100" data-name="Tracé 1100" d="M9.713,5.621V0L0,5.6v5.614Z" transform="translate(240.919 100.846)" fill="#fff"/>
    <path id="Tracé_1101" data-name="Tracé 1101" d="M22.261,3.953,9.713,0,0,5.607,12.548,9.56Z" transform="translate(228.371 96.893)" fill="#f6b26b"/>
    <path id="Tracé_1102" data-name="Tracé 1102" d="M22.261,3.953,9.713,0,0,5.607,12.548,9.56Z" transform="translate(228.371 96.893)" fill="#b4a7d6"/>
    <path id="Tracé_1103" data-name="Tracé 1103" d="M12.548,3.953,0,0,12.548,9.56Z" transform="translate(228.371 102.5)" fill="#f6b26b"/>
    <path id="Tracé_1104" data-name="Tracé 1104" d="M12.548,3.953,0,0,12.548,9.56Z" transform="translate(228.371 102.5)" opacity="0.15"/>
    <path id="Tracé_1105" data-name="Tracé 1105" d="M12.548,3.953,0,0,12.548,9.56Z" transform="translate(228.371 102.5)" fill="#8e7cc3"/>
    <path id="Tracé_1106" data-name="Tracé 1106" d="M9.713,5.614V0L0,5.593v5.621Z" transform="translate(189.527 130.325)" fill="#fff"/>
    <path id="Tracé_1107" data-name="Tracé 1107" d="M22.254,3.96,9.713,0,0,5.607l12.541,3.96Z" transform="translate(176.986 126.365)" fill="#f6b26b"/>
    <path id="Tracé_1108" data-name="Tracé 1108" d="M22.254,3.96,9.713,0,0,5.607l12.541,3.96Z" transform="translate(176.986 126.365)" fill="#b4a7d6"/>
    <path id="Tracé_1109" data-name="Tracé 1109" d="M12.541,3.96,0,0,12.541,9.567Z" transform="translate(176.986 131.972)" fill="#f6b26b"/>
    <path id="Tracé_1110" data-name="Tracé 1110" d="M12.541,3.96,0,0,12.541,9.567Z" transform="translate(176.986 131.972)" opacity="0.15"/>
    <path id="Tracé_1111" data-name="Tracé 1111" d="M12.541,3.96,0,0,12.541,9.567Z" transform="translate(176.986 131.972)" fill="#8e7cc3"/>
    <path id="Tracé_1112" data-name="Tracé 1112" d="M9.928,2.814V0L0,5.69V8.5Z" transform="translate(247.561 114.929)" fill="#fff"/>
    <path id="Tracé_1113" data-name="Tracé 1113" d="M9.928,2.807V0L0,5.683V8.49Z" transform="translate(195.217 145.297)" fill="#fff"/>
    <path id="Tracé_1114" data-name="Tracé 1114" d="M0,11.325V0L2.654,3.328V9.352Z" transform="translate(85.853 99.859)" fill="#263238"/>
    <path id="Tracé_1115" data-name="Tracé 1115" d="M2.654,3.328,30.841,22.122,0,0Z" transform="translate(85.853 99.859)" opacity="0.2"/>
    <path id="Tracé_1116" data-name="Tracé 1116" d="M2.654,0,30.841,18.307,0,1.973Z" transform="translate(85.853 109.211)" opacity="0.2"/>
    <path id="Tracé_1117" data-name="Tracé 1117" d="M0,0,3.05,1.786,2.855,18.467,0,16.82Z" transform="translate(32.154 56.353)" fill="#263238"/>
    <path id="Tracé_1118" data-name="Tracé 1118" d="M67.858,1.786,3.05,38.671,0,36.885,64.808,0Z" transform="translate(32.154 19.468)" fill="#455a64"/>
    <path id="Tracé_1119" data-name="Tracé 1119" d="M67.858,1.786,3.05,38.671,0,36.885,64.808,0Z" transform="translate(32.154 19.468)" fill="#fff" opacity="0.2"/>
    <path id="Tracé_1120" data-name="Tracé 1120" d="M0,0,11.373,2.189,7.253,4.335Z" transform="translate(102.25 25.019)" opacity="0.2"/>
    <path id="Tracé_1121" data-name="Tracé 1121" d="M1.209,0V5.607L0,6.308V.7Z" transform="translate(92.419 23.164)" fill="#37474f"/>
    <path id="Tracé_1122" data-name="Tracé 1122" d="M0,0V5.607L3.648,7.712V2.105Z" transform="translate(88.771 21.76)" fill="#263238"/>
    <path id="Tracé_1123" data-name="Tracé 1123" d="M1.209,0V5.607L0,6.3V.695Z" transform="translate(53.574 45.605)" fill="#37474f"/>
    <path id="Tracé_1124" data-name="Tracé 1124" d="M0,0V5.607L3.647,7.712V2.105Z" transform="translate(49.927 44.194)" fill="#263238"/>
    <path id="Tracé_1125" data-name="Tracé 1125" d="M73.194,5.607,63.481,0,0,36.7,9.713,42.3Z" transform="translate(30.327 13.145)" fill="#f6b26b"/>
    <path id="Tracé_1126" data-name="Tracé 1126" d="M73.194,5.607,63.481,0,0,36.7,9.713,42.3Z" transform="translate(30.327 13.145)" fill="#d9d2e9"/>
    <path id="Tracé_1127" data-name="Tracé 1127" d="M63.481,0V1.508L0,38.206V36.7Z" transform="translate(40.04 18.752)" fill="#b4a7d6"/>
    <path id="Tracé_1128" data-name="Tracé 1128" d="M0,0,9.713,5.607V7.115L0,1.508Z" transform="translate(30.327 49.843)" fill="#f6b26b"/>
    <path id="Tracé_1129" data-name="Tracé 1129" d="M0,0,9.713,5.607V7.115L0,1.508Z" transform="translate(30.327 49.843)" fill="#8e7cc3"/>
    <path id="Tracé_1130" data-name="Tracé 1130" d="M0,0,6.7,3.842,9.011,2.494Z" transform="translate(90.293 16.431)" opacity="0.2"/>
    <path id="Tracé_1131" data-name="Tracé 1131" d="M61.772,32.731,0,0,61.751,38.574a2.411,2.411,0,0,0,.985.343,1.307,1.307,0,0,0,1.365-.774,2.39,2.39,0,0,0,.207-1.021,5.613,5.613,0,0,0-2.536-4.391Z" transform="translate(0 47.946)" fill="#f6b26b"/>
    <path id="Tracé_1132" data-name="Tracé 1132" d="M28.638,15.174,0,0,28.632,17.89a1.13,1.13,0,0,0,.46.157.629.629,0,0,0,.376-.077.64.64,0,0,0,.255-.291,1.171,1.171,0,0,0,.1-.484,2.6,2.6,0,0,0-1.181-2.022Z" transform="translate(14.486 62.488)" fill="#f6b26b"/>
    <path id="Tracé_1133" data-name="Tracé 1133" d="M35.76,18.946,0,0,35.746,22.337a1.422,1.422,0,0,0,.574.2.8.8,0,0,0,.471-.093.783.783,0,0,0,.318-.357,1.392,1.392,0,0,0,.117-.594,3.251,3.251,0,0,0-1.466-2.543Z" transform="translate(16.543 51.219)" fill="#f6b26b"/>
    <g id="Groupe_757" data-name="Groupe 757" transform="translate(0 47.946)">
      <path id="Tracé_1134" data-name="Tracé 1134" d="M61.772,32.731,0,0,61.751,38.574a2.411,2.411,0,0,0,.985.343,1.307,1.307,0,0,0,1.365-.774,2.39,2.39,0,0,0,.207-1.021,5.613,5.613,0,0,0-2.536-4.391Z" transform="translate(0)" fill="#d9d2e9"/>
      <path id="Tracé_1135" data-name="Tracé 1135" d="M28.638,15.174,0,0,28.632,17.89a1.13,1.13,0,0,0,.46.157.629.629,0,0,0,.376-.077.64.64,0,0,0,.255-.291,1.171,1.171,0,0,0,.1-.484,2.6,2.6,0,0,0-1.181-2.022Z" transform="translate(14.486 14.542)" fill="#d9d2e9"/>
      <path id="Tracé_1136" data-name="Tracé 1136" d="M35.76,18.946,0,0,35.746,22.337a1.422,1.422,0,0,0,.574.2.8.8,0,0,0,.471-.093.783.783,0,0,0,.318-.357,1.392,1.392,0,0,0,.117-.594,3.251,3.251,0,0,0-1.466-2.543Z" transform="translate(16.543 3.272)" fill="#d9d2e9"/>
    </g>
    <path id="Tracé_1140" data-name="Tracé 1140" d="M0,0,27.735,17.536l2.446-1.41Z" transform="translate(131.145 40.839)" fill="#f6b26b"/>
    <path id="Tracé_1141" data-name="Tracé 1141" d="M0,0,43.875,27.735l3.856-2.23Z" transform="translate(118.521 28.611)" fill="#f6b26b"/>
    <path id="Tracé_1142" data-name="Tracé 1142" d="M0,0,36.538,23.094l3.217-1.855Z" transform="translate(130.485 30.57)" fill="#f6b26b"/>
    <g id="Groupe_759" data-name="Groupe 759" transform="translate(118.521 28.611)">
      <path id="Tracé_1146" data-name="Tracé 1146" d="M0,0,27.735,17.536l2.446-1.41Z" transform="translate(12.624 12.228)" fill="#d9d2e9"/>
      <path id="Tracé_1147" data-name="Tracé 1147" d="M0,0,43.875,27.735l3.856-2.23Z" fill="#d9d2e9"/>
      <path id="Tracé_1148" data-name="Tracé 1148" d="M0,0,36.538,23.094l3.217-1.855Z" transform="translate(11.964 1.959)" fill="#d9d2e9"/>
    </g>
  </g>
</svg>
