<svg xmlns="http://www.w3.org/2000/svg" xmlns:xlink="http://www.w3.org/1999/xlink" width="481.774" height="279.464" viewBox="0 0 481.774 279.464">
  <defs>
    <clipPath id="clip-path">
      <ellipse id="Ellipse_7" data-name="Ellipse 7" cx="8.268" cy="11.213" rx="8.268" ry="11.213" fill="#b8b8c2"/>
    </clipPath>
    <clipPath id="clip-path-3">
      <path id="Tracé_7" data-name="Tracé 7" d="M123.621,272.791V234.284a11.014,11.014,0,0,1,9.468-10.927,112.469,112.469,0,0,1,17.214-1.124s36.557-22.471,49.962-22.471l83.983-.433a70.612,70.612,0,0,1,32.424,7.389l37.4,18.612L403.8,236.217s10.3,2.795,12.508,9.491a38.857,38.857,0,0,1,1.472,14.053H308.561s-4.922-15.477-20.672-15.477-20.016,18.991-19.031,28.506h-82.52s.328-28.219-21-27.234-19.688,27.234-19.688,27.234H123.621" transform="translate(-123.621 -199.323)" fill="#f6b26b"/>
    </clipPath>
    <clipPath id="clip-path-4">
      <path id="Tracé_11" data-name="Tracé 11" d="M298.864,226.608,265.677,207.94a18.833,18.833,0,0,0-9.233-2.419H236.682a27.131,27.131,0,0,0-14.452,4.169L190.7,227.582a1.008,1.008,0,0,0,.5,1.885h106.92A1.528,1.528,0,0,0,298.864,226.608Z" transform="translate(-190.186 -205.521)"/>
    </clipPath>
  </defs>
  <g id="Groupe_765" data-name="Groupe 765" transform="translate(-98.385 -1270.027)">
    <ellipse id="freepik--floor--inject-212" cx="237.505" cy="70.852" rx="237.505" ry="70.852" transform="matrix(0.999, 0.052, -0.052, 0.999, 105.801, 1383.122)" fill="#f0f0f0"/>
    <ellipse id="freepik--shadow--inject-212" cx="188.165" cy="38.318" rx="188.165" ry="38.318" transform="translate(150.669 1426.667)" fill="#e0e0e0"/>
    <g id="Groupe_359" data-name="Groupe 359" transform="translate(150.669 1270.027)">
      <g id="Illustration_1" data-name="Illustration 1" transform="translate(183.919 101.023)">
        <g id="Groupe_59" data-name="Groupe 59" transform="translate(-183.919 -101.023)">
          <g id="Groupe_21" data-name="Groupe 21" transform="translate(62.62 108.503)">
            <g id="Groupe_9" data-name="Groupe 9" transform="translate(15.958 40.948)">
              <path id="Tracé_1" data-name="Tracé 1" d="M341.548,284.644h-9.864c-9.684,0-17.534,10.159-17.534,22.692s7.85,22.691,17.534,22.691h9.864c9.684,0,17.534-10.159,17.534-22.691S351.232,284.644,341.548,284.644Z" transform="translate(-221.984 -279.147)"/>
              <path id="Tracé_2" data-name="Tracé 2" d="M567.52,284.644h-9.864c-9.684,0-17.534,10.159-17.534,22.692s7.85,22.691,17.534,22.691h9.864c9.684,0,17.534-10.159,17.534-22.691S577.2,284.644,567.52,284.644Z" transform="translate(-324.946 -279.147)"/>
              <g id="Groupe_4" data-name="Groupe 4" transform="translate(123.01)">
                <rect id="Rectangle_8" data-name="Rectangle 8" width="72.713" height="32.521"/>
                <g id="Groupe_3" data-name="Groupe 3" transform="translate(12.99 6.491)">
                  <ellipse id="Ellipse_3" data-name="Ellipse 3" cx="17.127" cy="22.165" rx="17.127" ry="22.165" transform="translate(9.635 0)"/>
                  <path id="Tracé_3" data-name="Tracé 3" d="M426.136,330.8h9.635l9.849-9.849-9.849-34.48h-9.635Z" transform="translate(-409.009 -286.469)"/>
                  <ellipse id="Ellipse_4" data-name="Ellipse 4" cx="17.127" cy="22.165" rx="17.127" ry="22.165" transform="translate(0 0)" fill="#253a6a"/>
                  <g id="Groupe_2" data-name="Groupe 2" transform="translate(7.675 10.485)">
                    <ellipse id="Ellipse_5" data-name="Ellipse 5" cx="8.268" cy="11.213" rx="8.268" ry="11.213" fill="#b8b8c2"/>
                    <g id="Groupe_1" data-name="Groupe 1" clip-path="url(#clip-path)">
                      <ellipse id="Ellipse_6" data-name="Ellipse 6" cx="8.268" cy="11.213" rx="8.268" ry="11.213" transform="translate(3.849)" fill="#fff"/>
                    </g>
                  </g>
                </g>
              </g>
              <g id="Groupe_8" data-name="Groupe 8">
                <rect id="Rectangle_9" data-name="Rectangle 9" width="72.713" height="32.521"/>
                <g id="Groupe_7" data-name="Groupe 7" transform="translate(12.99 6.491)">
                  <ellipse id="Ellipse_8" data-name="Ellipse 8" cx="17.127" cy="22.165" rx="17.127" ry="22.165" transform="translate(9.635 0)"/>
                  <path id="Tracé_4" data-name="Tracé 4" d="M200.164,330.8H209.8l9.849-9.849-9.849-34.48h-9.635Z" transform="translate(-183.037 -286.469)"/>
                  <ellipse id="Ellipse_9" data-name="Ellipse 9" cx="17.127" cy="22.165" rx="17.127" ry="22.165" transform="translate(0 0)" fill="#253a6a"/>
                  <g id="Groupe_6" data-name="Groupe 6" transform="translate(7.675 10.485)">
                    <ellipse id="Ellipse_10" data-name="Ellipse 10" cx="8.268" cy="11.213" rx="8.268" ry="11.213" fill="#b8b8c2"/>
                    <g id="Groupe_5" data-name="Groupe 5" clip-path="url(#clip-path)">
                      <ellipse id="Ellipse_11" data-name="Ellipse 11" cx="8.268" cy="11.213" rx="8.268" ry="11.213" transform="translate(3.849)" fill="#fff"/>
                    </g>
                  </g>
                </g>
              </g>
            </g>
            <g id="Groupe_20" data-name="Groupe 20">
              <g id="Groupe_11" data-name="Groupe 11" transform="translate(4.408)">
                <path id="Tracé_5" data-name="Tracé 5" d="M123.621,272.791V234.284a11.014,11.014,0,0,1,9.468-10.927,112.469,112.469,0,0,1,17.214-1.124s36.557-22.471,49.962-22.471l83.983-.433a70.612,70.612,0,0,1,32.424,7.389l37.4,18.612L403.8,236.217s10.3,2.795,12.508,9.491a38.857,38.857,0,0,1,1.472,14.053H308.561s-4.922-15.477-20.672-15.477-20.016,18.991-19.031,28.506h-82.52s.328-28.219-21-27.234-19.688,27.234-19.688,27.234H123.621" transform="translate(-123.621 -199.323)" fill="#f6b26b"/>
                <g id="Groupe_10" data-name="Groupe 10" clip-path="url(#clip-path-3)">
                  <path id="Tracé_6" data-name="Tracé 6" d="M387.127,216.615l58.209,30.834,112.786-.131-99.061-48-17.876,22.034-54.057-4.742" transform="translate(-243.685 -199.323)" fill="#f6b26b"/>
                </g>
              </g>
              <g id="Groupe_12" data-name="Groupe 12" transform="translate(0 60.439)">
                <path id="Tracé_8" data-name="Tracé 8" d="M120.742,310.35a5.215,5.215,0,0,0-5.215,5.208l0,2.61a5.211,5.211,0,0,0,5.212,5.212H141.96a47.756,47.756,0,0,1,1.774-13.03Z" transform="translate(-115.524 -310.35)" fill="#cf8127"/>
              </g>
              <g id="Groupe_17" data-name="Groupe 17" transform="translate(40.643 3.374)">
                <g id="Groupe_15" data-name="Groupe 15" transform="translate(0 0)">
                  <g id="Groupe_14" data-name="Groupe 14">
                    <path id="Tracé_9" data-name="Tracé 9" d="M298.864,226.608,265.677,207.94a18.833,18.833,0,0,0-9.233-2.419H236.682a27.131,27.131,0,0,0-14.452,4.169L190.7,227.582a1.008,1.008,0,0,0,.5,1.885h106.92A1.528,1.528,0,0,0,298.864,226.608Z" transform="translate(-190.186 -205.521)"/>
                    <g id="Groupe_13" data-name="Groupe 13" clip-path="url(#clip-path-4)">
                      <path id="Tracé_10" data-name="Tracé 10" d="M192.15,203.484l68.117,38.683h27.415l-68.1-38.683Z" transform="translate(-191.081 -204.593)" fill="#5e5e5e"/>
                    </g>
                  </g>
                  <path id="Tracé_12" data-name="Tracé 12" d="M190.745,247.473v13.391s28.955-5.832,31.889,27.351h66.132s-1.768-32.437,10.442-40.35" transform="translate(-190.441 -224.636)" fill="none" stroke="#000" stroke-linecap="round" stroke-linejoin="round" stroke-width="0.428"/>
                  <path id="Tracé_13" data-name="Tracé 13" d="M286.146,249.51s-6.9,3.06-3.554,39.634" transform="translate(-231.873 -225.564)" fill="none" stroke="#000" stroke-linecap="round" stroke-linejoin="round" stroke-width="0.428"/>
                  <rect id="Rectangle_10" data-name="Rectangle 10" width="9.278" height="3.243" rx="1.062" transform="translate(56.949 27.185)"/>
                  <rect id="Rectangle_11" data-name="Rectangle 11" width="9.278" height="3.243" rx="1.062" transform="translate(7.032 27.185)"/>
                </g>
                <g id="Groupe_16" data-name="Groupe 16" transform="translate(87.039)">
                  <path id="Tracé_14" data-name="Tracé 14" d="M351.148,209.3l37.987,20.167h64.58l-43.444-21.244a26.579,26.579,0,0,0-11.677-2.7h-46.5A2.006,2.006,0,0,0,351.148,209.3Z" transform="translate(-350.079 -205.521)"/>
                  <line id="Ligne_1" data-name="Ligne 1" x2="59.779" transform="translate(48.487 27.185)" fill="none" stroke="#000" stroke-linecap="round" stroke-linejoin="round" stroke-width="0.428"/>
                  <path id="Tracé_15" data-name="Tracé 15" d="M374.635,205.521,416.8,229.467h14.071L388.72,205.521Z" transform="translate(-361.268 -205.521)" fill="#5e5e5e"/>
                  <path id="Tracé_16" data-name="Tracé 16" d="M422.888,205.521l42.167,23.946h4.573l-42.153-23.946Z" transform="translate(-383.254 -205.521)" fill="#5e5e5e"/>
                </g>
              </g>
              <g id="Groupe_19" data-name="Groupe 19" transform="translate(189.337 46.445)">
                <path id="Tracé_17" data-name="Tracé 17" d="M566.166,323.38H468.553a5.211,5.211,0,0,1-5.212-5.212l.01-7.818H572.572l-.087,6.71A6.32,6.32,0,0,1,566.166,323.38Z" transform="translate(-463.341 -296.357)" fill="#cf8127"/>
                <rect id="Rectangle_12" data-name="Rectangle 12" width="17.72" height="5.36" transform="translate(59.766 12.376)" fill="#fff"/>
                <line id="Ligne_2" data-name="Ligne 2" x2="52.229" transform="translate(38.75 1.686)" fill="none" stroke="#000" stroke-linecap="round" stroke-linejoin="round" stroke-width="0.428"/>
                <line id="Ligne_3" data-name="Ligne 3" x2="34.327" transform="translate(48.282 5.674)" fill="none" stroke="#000" stroke-linecap="round" stroke-linejoin="round" stroke-width="0.428"/>
                <line id="Ligne_4" data-name="Ligne 4" x2="34.327" transform="translate(48.282 9.647)" fill="none" stroke="#000" stroke-linecap="round" stroke-linejoin="round" stroke-width="0.428"/>
                <rect id="Rectangle_13" data-name="Rectangle 13" width="29.772" height="10.247" rx="2.815" transform="translate(14.645 0)" fill="#fff"/>
                <g id="Groupe_18" data-name="Groupe 18" transform="translate(87.015)">
                  <path id="Tracé_18" data-name="Tracé 18" d="M643.968,284.644H626.677a3.488,3.488,0,0,0-3.488,3.488V291.4a3.488,3.488,0,0,0,3.488,3.488h18.846C645.676,288.011,644.2,285.065,643.968,284.644Z" transform="translate(-623.189 -284.644)" fill="#fff"/>
                </g>
                <line id="Ligne_5" data-name="Ligne 5" x2="29.772" transform="translate(14.645 6.76)" fill="none" stroke="#000" stroke-linecap="round" stroke-linejoin="round" stroke-width="0.428"/>
                <line id="Ligne_6" data-name="Ligne 6" x2="22.216" transform="translate(87.015 6.76)" fill="none" stroke="#000" stroke-linecap="round" stroke-linejoin="round" stroke-width="0.428"/>
              </g>
            </g>
          </g>
          <g id="Groupe_58" data-name="Groupe 58" transform="translate(26.556)">
            <g id="Groupe_22" data-name="Groupe 22" transform="translate(100.108)">
              <path id="Tracé_19" data-name="Tracé 19" d="M261.4,14.112c0-10.149-10.714-17.8-21.448-12.249a13.385,13.385,0,0,0-4.7,4.589,14.626,14.626,0,0,0-.538,14.054H234.7l.114.207c.052.1.106.193.16.289l12.31,22.26,12.331-22.3c.042-.075.084-.149.125-.225l.057-.1h-.007A14.043,14.043,0,0,0,261.4,14.112Z" transform="translate(-233.175 0)" fill="#f6b26b"/>
              <circle id="Ellipse_13" data-name="Ellipse 13" cx="6.252" cy="6.252" r="6.252" transform="translate(7.86 7.711)" fill="#fff"/>
            </g>
            <g id="Groupe_57" data-name="Groupe 57" transform="translate(0 20.215)">
              <g id="Groupe_51" data-name="Groupe 51" transform="translate(29.575)">
                <g id="Groupe_33" data-name="Groupe 33" transform="translate(9.96 75.094)">
                  <g id="Groupe_26" data-name="Groupe 26" transform="translate(20.665)">
                    <g id="Groupe_25" data-name="Groupe 25" transform="translate(0.662 81.553)">
                      <g id="Groupe_24" data-name="Groupe 24" transform="translate(0 12.412)">
                        <path id="Tracé_20" data-name="Tracé 20" d="M162.908,347.7h8.8l14.559,7.789-25.034-.3Z" transform="translate(-161.15 -347.7)" fill="#101010"/>
                        <g id="Groupe_23" data-name="Groupe 23" transform="translate(0 7.49)">
                          <path id="Tracé_21" data-name="Tracé 21" d="M161.077,364.754l.087-3.295,25.034.3-.087,3.295Z" transform="translate(-161.077 -361.459)" fill="#fff"/>
                        </g>
                        <line id="Ligne_7" data-name="Ligne 7" x1="2.884" y2="0.788" transform="translate(13.762 2.868)" fill="none" stroke="#fff" stroke-linecap="round" stroke-linejoin="round" stroke-width="0.793"/>
                        <line id="Ligne_8" data-name="Ligne 8" x1="2.884" y2="0.788" transform="translate(10.943 1.422)" fill="none" stroke="#fff" stroke-linecap="round" stroke-linejoin="round" stroke-width="0.793"/>
                      </g>
                      <path id="Tracé_22" data-name="Tracé 22" d="M174.042,324.9h-8.973l-.762,12.412h8.973Z" transform="translate(-162.549 -324.899)" fill="#ebb28b"/>
                    </g>
                    <path id="Tracé_23" data-name="Tracé 23" d="M177.888,175.084l-5.533,89.974H159.861l2.158-89.974Z" transform="translate(-159.861 -175.084)" fill="#8e7cc3"/>
                  </g>
                  <g id="Groupe_32" data-name="Groupe 32">
                    <g id="Groupe_29" data-name="Groupe 29" transform="translate(1.094 81.553)">
                      <g id="Groupe_28" data-name="Groupe 28" transform="translate(0 12.412)">
                        <path id="Tracé_24" data-name="Tracé 24" d="M125.74,347.7h8.8l14.559,7.789-25.034-.3Z" transform="translate(-123.981 -347.7)" fill="#101010"/>
                        <g id="Groupe_27" data-name="Groupe 27" transform="translate(0 7.49)">
                          <path id="Tracé_25" data-name="Tracé 25" d="M123.909,364.754l.087-3.295,25.034.3-.087,3.295Z" transform="translate(-123.909 -361.459)" fill="#fff"/>
                        </g>
                        <line id="Ligne_9" data-name="Ligne 9" x1="2.884" y2="0.788" transform="translate(13.762 2.868)" fill="none" stroke="#fff" stroke-linecap="round" stroke-linejoin="round" stroke-width="0.793"/>
                        <line id="Ligne_10" data-name="Ligne 10" x1="2.884" y2="0.788" transform="translate(10.943 1.422)" fill="none" stroke="#fff" stroke-linecap="round" stroke-linejoin="round" stroke-width="0.793"/>
                      </g>
                      <path id="Tracé_26" data-name="Tracé 26" d="M137.765,324.9h-8.973l-1.654,12.412h8.973Z" transform="translate(-125.38 -324.899)" fill="#ebb28b"/>
                    </g>
                    <g id="Groupe_31" data-name="Groupe 31">
                      <path id="Tracé_27" data-name="Tracé 27" d="M134.134,175.084,121.9,265.059h13.659l17.782-89.974Z" transform="translate(-121.9 -175.084)" fill="#8e7cc3"/>
                      <g id="Groupe_30" data-name="Groupe 30" transform="translate(10.441 7.182)">
                        <path id="Tracé_28" data-name="Tracé 28" d="M161.639,233.9l6.982-35.33,5.1-3.321" transform="translate(-150.447 -191.456)" fill="none" stroke="#171717" stroke-linecap="round" stroke-linejoin="round" stroke-width="0.347"/>
                        <line id="Ligne_11" data-name="Ligne 11" y1="6.007" x2="7.63" fill="none" stroke="#171717" stroke-linecap="round" stroke-linejoin="round" stroke-width="0.347"/>
                      </g>
                    </g>
                  </g>
                </g>
                <g id="Groupe_47" data-name="Groupe 47" transform="translate(0 30.982)">
                  <g id="Groupe_41" data-name="Groupe 41" transform="translate(41.401)">
                    <g id="Groupe_35" data-name="Groupe 35" transform="translate(0 2.992)">
                      <path id="Tracé_29" data-name="Tracé 29" d="M189.26,110.731l13.9,18.251a4.79,4.79,0,0,1,.228,6.115h0a4.79,4.79,0,0,1-7.21.439L181.238,118.26a5.5,5.5,0,0,1-.151-7.56h0A5.5,5.5,0,0,1,189.26,110.731Z" transform="translate(-179.657 -103.807)" fill="#ebb28b"/>
                      <g id="Groupe_34" data-name="Groupe 34" transform="translate(2.794)">
                        <path id="Tracé_30" data-name="Tracé 30" d="M184.789,99.545s6.8.848,12,10.933l-7.992,9.581Z" transform="translate(-184.789 -99.545)" fill="#351c75"/>
                      </g>
                    </g>
                    <g id="Groupe_40" data-name="Groupe 40" transform="translate(13.972)">
                      <g id="Groupe_36" data-name="Groupe 36" transform="translate(0 16.965)">
                        <path id="Tracé_31" data-name="Tracé 31" d="M205.324,137.166l19.055-11.951,3.793,3.917-13.814,14.155Z" transform="translate(-205.324 -125.215)" fill="#ebb28b"/>
                      </g>
                      <g id="Groupe_39" data-name="Groupe 39" transform="translate(17.812)">
                        <g id="Groupe_37" data-name="Groupe 37" transform="translate(0.23 5.769)">
                          <path id="Tracé_32" data-name="Tracé 32" d="M242.534,111.5l9.448,2.757s0,7.323-8.716,8.647a8.221,8.221,0,0,1-2.991-1.077l-1.45-4.134a1.762,1.762,0,0,1,.1-2.254Z" transform="translate(-238.468 -107.768)" fill="#ebb28b"/>
                          <path id="Tracé_33" data-name="Tracé 33" d="M244.5,109.594l3.342-4.388a1.367,1.367,0,0,1,1.908-.289h0a1.4,1.4,0,0,1,.2,1.877l-3.087,4.813Z" transform="translate(-241.217 -104.647)" fill="#e9b0a0"/>
                          <path id="Tracé_34" data-name="Tracé 34" d="M251.924,116.465l4.016-3.963a1.3,1.3,0,0,1,1.852-.128h0a1.387,1.387,0,0,1-.064,1.848l-3.831,4.4Z" transform="translate(-244.599 -108.018)" fill="#e9b0a0"/>
                          <path id="Tracé_35" data-name="Tracé 35" d="M249.083,111.7l3.794-3.748a1.333,1.333,0,0,1,1.909-.054h0a1.432,1.432,0,0,1-.02,1.907l-3.594,4.206Z" transform="translate(-243.305 -105.955)" fill="#e9b0a0"/>
                        </g>
                        <g id="Groupe_38" data-name="Groupe 38" transform="translate(1.857)">
                          <path id="Tracé_36" data-name="Tracé 36" d="M256.311,94.05l1.5.1v9.875l-5.279,8.267-1.605-.131,2.832-10.385Z" transform="translate(-245.774 -94.049)" fill="#36438d"/>
                          <path id="Tracé_37" data-name="Tracé 37" d="M244.374,107.838,248.787,112a1,1,0,0,0,1.565-.014l9.607-11.991a.829.829,0,0,0-.009-1.027l-4.629-4.428a.829.829,0,0,0-1.3.011L244.363,106.6A1,1,0,0,0,244.374,107.838Z" transform="translate(-242.686 -94.131)" fill="#050907"/>
                          <path id="Tracé_38" data-name="Tracé 38" d="M241.677,107.659l4.413,4.159a1,1,0,0,0,1.565-.014l9.607-11.991a.829.829,0,0,0-.009-1.027l-4.629-4.428a.829.829,0,0,0-1.3.011l-9.656,12.055A1,1,0,0,0,241.677,107.659Z" transform="translate(-241.457 -94.049)" fill="#fff"/>
                        </g>
                        <path id="Tracé_39" data-name="Tracé 39" d="M239.653,117.34a3.818,3.818,0,0,1-1.58-3.642,11.541,11.541,0,0,1,1.688-4.721c.461-.866.995-1.284,1.745-1.179h0a1.423,1.423,0,0,1,1.188,1.578l-.846,1.876s.931,2.378-1.018,5.984Z" transform="translate(-238.046 -100.306)" fill="#ebb28b"/>
                      </g>
                    </g>
                  </g>
                  <g id="Groupe_42" data-name="Groupe 42" transform="translate(20.235 0.614)">
                    <path id="Tracé_40" data-name="Tracé 40" d="M151.949,95.621a47.343,47.343,0,0,0-8.8,3.049c-2.307,1.164-2.563,3.678-2.273,6.246l1.862,33.76h26.458l1.851-32.616A8.077,8.077,0,0,0,165.8,97.82c-3.805-1.293-6.208-2.525-8.233-2.642Z" transform="translate(-140.775 -95.178)" fill="#351c75"/>
                    <line id="Ligne_12" data-name="Ligne 12" y1="9.923" x2="0.561" transform="translate(29.706 10.881)" fill="#351c75" stroke="#171717" stroke-linecap="round" stroke-linejoin="round" stroke-width="0.347"/>
                    <path id="Tracé_41" data-name="Tracé 41" d="M158.749,95.991l-3.05.838s2.266,4.366,10.5,3.628c5.772-.518,3.446-3.342,3.446-3.342l-2.871-1.039Z" transform="translate(-147.575 -95.548)" fill="#351c75"/>
                  </g>
                  <g id="Groupe_46" data-name="Groupe 46" transform="translate(0 2.551)">
                    <g id="Groupe_43" data-name="Groupe 43" transform="translate(1.308 17.888)">
                      <path id="Tracé_42" data-name="Tracé 42" d="M111.1,131.6l13.662,20.113-3.679,4.025-15.081-14.776Z" transform="translate(-106.006 -131.597)" fill="#ebb28b"/>
                      <path id="Tracé_43" data-name="Tracé 43" d="M149.943,165.329l-5.844-2.972.574-1.283a1.135,1.135,0,0,0-1.728-1.362l-5.756,4.519-3.479,4.206c3.157,2.7,5.22,2.67,6.409,2.146.139.046.276.1.417.137l4.857,1.393a.925.925,0,0,0,1.192-.432c.16-.317.216-.825-.719-1.3l.935.475a.96.96,0,0,0,1.249-.47c.209-.413-.047-.959-.6-1.316l.715.281a.987.987,0,0,0,1.323-.581,1.023,1.023,0,0,0-.534-1.228l-1.033-.523,1.226.3a1.071,1.071,0,0,0,1.379-.694A1.11,1.11,0,0,0,149.943,165.329Z" transform="translate(-118.629 -144.3)" fill="#ebb28b"/>
                      <line id="Ligne_13" data-name="Ligne 13" x1="3.455" y1="1.63" transform="translate(26.152 21.236)" fill="none" stroke="#171717" stroke-linecap="round" stroke-linejoin="round" stroke-width="0.225"/>
                      <line id="Ligne_14" data-name="Ligne 14" x1="3.331" y1="1.387" transform="translate(25.347 23.322)" fill="none" stroke="#171717" stroke-linecap="round" stroke-linejoin="round" stroke-width="0.225"/>
                      <line id="Ligne_15" data-name="Ligne 15" x1="2.822" y1="1.113" transform="translate(24.724 25.092)" fill="none" stroke="#171717" stroke-linecap="round" stroke-linejoin="round" stroke-width="0.225"/>
                    </g>
                    <g id="Groupe_45" data-name="Groupe 45">
                      <path id="Tracé_44" data-name="Tracé 44" d="M129.172,113.567,111.8,128.551a4.79,4.79,0,0,1-6.09.6h0a4.79,4.79,0,0,1-.877-7.17l16.337-15.961a5.5,5.5,0,0,1,7.537-.611h0A5.5,5.5,0,0,1,129.172,113.567Z" transform="translate(-103.603 -101.223)" fill="#ebb28b"/>
                      <g id="Groupe_44" data-name="Groupe 44" transform="translate(9.847)">
                        <path id="Tracé_45" data-name="Tracé 45" d="M138.2,98.736s-9.067,1.772-16.5,11.2l7.882,10.276,11.3-8.094Z" transform="translate(-121.692 -98.736)" fill="#351c75"/>
                        <line id="Ligne_16" data-name="Ligne 16" y1="4.695" x2="6.556" transform="translate(11.72 14.035)" fill="#351c75" stroke="#171717" stroke-linecap="round" stroke-linejoin="round" stroke-width="0.347"/>
                      </g>
                    </g>
                  </g>
                </g>
                <g id="Groupe_50" data-name="Groupe 50" transform="translate(23.824)">
                  <path id="Tracé_46" data-name="Tracé 46" d="M184.038,43.926s3.061,2.735.521,8.877l-4.2-8.291Z" transform="translate(-162.399 -40.23)" fill="#20124d"/>
                  <path id="Tracé_47" data-name="Tracé 47" d="M151.859,45.282s-3.575-.389-4.386,5.125,3.24,8.809,7.738,11.475Z" transform="translate(-147.368 -40.845)" fill="#20124d"/>
                  <ellipse id="Ellipse_14" data-name="Ellipse 14" cx="10.256" cy="10.494" rx="10.256" ry="10.494" transform="translate(1.687 0.991)" fill="#20124d"/>
                  <ellipse id="Ellipse_15" data-name="Ellipse 15" cx="2.602" cy="2.602" rx="2.602" ry="2.602" transform="matrix(0.444, -0.896, 0.896, 0.444, 17.549, 16.352)" fill="#dd8161"/>
                  <path id="Tracé_48" data-name="Tracé 48" d="M169.183,72.345l.153,11.321-8.444-1.4.613-16.238Z" transform="translate(-153.53 -50.302)" fill="#ebb28b"/>
                  <path id="Tracé_49" data-name="Tracé 49" d="M171.309,83.312l-5.931-5.8,6.119,1.074Z" transform="translate(-155.574 -55.532)" fill="#171717"/>
                  <path id="Tracé_50" data-name="Tracé 50" d="M174.054,46.674s2.284,9.119,1.253,12.619-3.75,5.771-8.29,5.026c0,0-5.237-.1-6.784-7.821C157.9,44.873,168.422,40.618,174.054,46.674Z" transform="translate(-153.079 -40.23)" fill="#ebb28b"/>
                  <path id="Tracé_51" data-name="Tracé 51" d="M160.982,59.107s3.352-7.7-.288-9.2c-1.093-.45-1.733-.679-2.249,3.179s.831,4.489.831,4.489Z" transform="translate(-152.362 -42.846)" fill="#20124d"/>
                  <g id="Groupe_48" data-name="Groupe 48" transform="translate(3.845 13.599)">
                    <path id="Tracé_52" data-name="Tracé 52" d="M154.573,65.663a2.689,2.689,0,1,0,1.692-3.406A2.689,2.689,0,0,0,154.573,65.663Z" transform="translate(-154.432 -62.117)" fill="#ebb28b"/>
                    <path id="Tracé_53" data-name="Tracé 53" d="M157.1,65.611a1.97,1.97,0,0,1,2.543,1.527" transform="translate(-155.649 -63.671)" fill="none" stroke="#171717" stroke-linecap="round" stroke-linejoin="round" stroke-width="0.215"/>
                  </g>
                  <g id="Groupe_49" data-name="Groupe 49" transform="translate(11.972 9.556)">
                    <path id="Tracé_54" data-name="Tracé 54" d="M182.22,65.135,182.8,67.1a.279.279,0,0,1-.207.324l-.661.106" transform="translate(-175.09 -59.449)" fill="none" stroke="#1e0b07" stroke-linecap="round" stroke-linejoin="round" stroke-width="0.203"/>
                    <path id="Tracé_55" data-name="Tracé 55" d="M174.915,63.491a.65.65,0,1,0,.688-.61A.651.651,0,0,0,174.915,63.491Z" transform="translate(-171.891 -58.422)" fill="#171717"/>
                    <path id="Tracé_56" data-name="Tracé 56" d="M184.9,63.259a.6.6,0,1,0,.639-.566A.6.6,0,0,0,184.9,63.259Z" transform="translate(-176.443 -58.336)" fill="#171717"/>
                    <path id="Tracé_57" data-name="Tracé 57" d="M174.261,55.49l-4.9,1.566a5.912,5.912,0,0,1,2.5-1.941A2.656,2.656,0,0,1,174.261,55.49Z" transform="translate(-169.361 -54.824)" fill="#171717"/>
                    <path id="Tracé_58" data-name="Tracé 58" d="M183.411,55.241l2.58.832s-.443-1.1-1.188-1.337A1.5,1.5,0,0,0,183.411,55.241Z" transform="translate(-175.763 -54.69)" fill="#171717"/>
                    <path id="Tracé_59" data-name="Tracé 59" d="M176.109,70.44a9.2,9.2,0,0,0,3.608.919S177.263,73.141,176.109,70.44Z" transform="translate(-172.436 -61.866)" fill="#fff"/>
                  </g>
                  <path id="Tracé_60" data-name="Tracé 60" d="M158.321,44.287s2.726,2.348,9.473.989,7.013-5.933,6.2-7.54a7.876,7.876,0,0,1-6.574.874c-2.281-.588-7.378-2.733-10.438-.435a3.484,3.484,0,0,0-1.413,3.4A3.528,3.528,0,0,0,158.321,44.287Z" transform="translate(-151.079 -37.136)" fill="#20124d"/>
                </g>
              </g>
              <g id="Groupe_56" data-name="Groupe 56" transform="translate(0 82.141)">
                <g id="Groupe_53" data-name="Groupe 53" transform="translate(7.26)">
                  <path id="Rectangle_14" data-name="Rectangle 14" d="M5.5,0h6.57a5.5,5.5,0,0,1,5.5,5.5V44.434a0,0,0,0,1,0,0H0a0,0,0,0,1,0,0V5.5A5.5,5.5,0,0,1,5.5,0Z" transform="translate(5.108)" fill="none" stroke="#101010" stroke-miterlimit="10" stroke-width="1.561"/>
                  <g id="Groupe_52" data-name="Groupe 52" transform="translate(0 88.156)">
                    <ellipse id="Ellipse_16" data-name="Ellipse 16" cx="4.078" cy="4.078" rx="4.078" ry="4.078" transform="matrix(0.229, -0.973, 0.973, 0.229, 0, 8.803)" fill="#101010"/>
                    <circle id="Ellipse_17" data-name="Ellipse 17" cx="4.078" cy="4.078" r="4.078" transform="translate(17.109 5.767) rotate(-45)" fill="#101010"/>
                  </g>
                </g>
                <g id="Groupe_55" data-name="Groupe 55" transform="translate(0 31.513)">
                  <rect id="Rectangle_15" data-name="Rectangle 15" width="42.301" height="61.454" rx="5.816" fill="#20124d"/>
                  <g id="Groupe_54" data-name="Groupe 54" transform="translate(7.256 9.719)">
                    <rect id="Rectangle_16" data-name="Rectangle 16" width="1.544" height="42.478" fill="none" stroke="#171717" stroke-linecap="round" stroke-linejoin="round" stroke-width="0.334"/>
                    <rect id="Rectangle_17" data-name="Rectangle 17" width="1.544" height="42.478" transform="translate(8.214)" fill="none" stroke="#171717" stroke-linecap="round" stroke-linejoin="round" stroke-width="0.334"/>
                    <rect id="Rectangle_18" data-name="Rectangle 18" width="1.544" height="42.478" transform="translate(16.428)" fill="none" stroke="#171717" stroke-linecap="round" stroke-linejoin="round" stroke-width="0.334"/>
                    <rect id="Rectangle_19" data-name="Rectangle 19" width="1.544" height="42.478" transform="translate(24.641)" fill="none" stroke="#171717" stroke-linecap="round" stroke-linejoin="round" stroke-width="0.334"/>
                  </g>
                </g>
              </g>
            </g>
          </g>
          <line id="Ligne_17" data-name="Ligne 17" x2="367.839" transform="translate(0 200.332)" fill="none" stroke="#000" stroke-linecap="round" stroke-linejoin="round" stroke-width="0.533"/>
        </g>
      </g>
    </g>
  </g>
</svg>
