<svg xmlns="http://www.w3.org/2000/svg" width="310.437" height="298.128" viewBox="0 0 310.437 298.128">
  <g id="Word_of_mouth-amico" data-name="Word of mouth-amico" transform="translate(-21.46 -41.504)">
    <g id="freepik--Floor--inject-212" transform="translate(21.46 160.398)">
      <ellipse id="freepik--floor--inject-212-2" data-name="freepik--floor--inject-212" cx="155.219" cy="89.617" rx="155.219" ry="89.617" fill="#f0f0f0"/>
    </g>
    <g id="freepik--Shadows--inject-212" transform="translate(87.014 253.961)">
      <ellipse id="freepik--Shadow--inject-212" cx="49.675" cy="28.682" rx="49.675" ry="28.682" transform="translate(81.352)" fill="#e0e0e0"/>
      <ellipse id="freepik--shadow--inject-212-2" data-name="freepik--shadow--inject-212" cx="49.675" cy="28.682" rx="49.675" ry="28.682" transform="translate(0)" fill="#e0e0e0"/>
    </g>
    <g id="freepik--character-2--inject-212" transform="translate(164.377 41.504)">
      <g id="freepik--Character--inject-212">
        <path id="Tracé_1415" data-name="Tracé 1415" d="M331.506,106.417c4.754-.679,7.763,1.263,9.964,5.433s0,24.688-.136,32.668c.115,4.754,1.9,16.558,3.4,22.9a10.7,10.7,0,0,0,2.622,5.06c2.038,2.513,2.866,5.284,4.252,8.429s2.282,3.695.91,4.326c-.564.258-2.038-.217-3-1.209-1.358-1.406-2.391-3.355-2.547-2.941a29.689,29.689,0,0,0,1.026,4.754c.55,1.779,1.555,3.606,1.949,4.646.944,2.438-2.819,4.659-6.751,3.484s-6.554-5.2-7.322-13.583.17-8.727-.462-14.154-3.613-19.506-4.245-24.308S331.506,106.417,331.506,106.417Z" transform="translate(-263.668 -62.287)" fill="#b16668"/>
        <g id="freepik--character--inject-212-2" data-name="freepik--character--inject-212">
          <path id="Tracé_1416" data-name="Tracé 1416" d="M276.575,370.35a75.634,75.634,0,0,0-1.406,7.743c-.38,2.934-.611,5.107-1.467,10.113-.781,4.571-1.358,8.055,1.861,11.492,2.839,3.022,7.844,4.184,9.508.747,1.881-3.926,1.637-10.3,1.358-14.263s-.2-5.128-.231-8.286c0-2.785-.163-3.926-.319-6.323C282.837,371.409,279.624,370.588,276.575,370.35Z" transform="translate(-245.107 -147.006)" fill="#37474f"/>
          <path id="Tracé_1417" data-name="Tracé 1417" d="M327.9,386.428l1.046-.156c.068-3.287-.122-6.289.679-7.844l-1.494-4.027Z" transform="translate(-262.691 -148.305)" fill="#263238"/>
          <path id="Tracé_1418" data-name="Tracé 1418" d="M324.11,370.07c.231,2.255,1.515,4.564,1.6,9.006a38.042,38.042,0,0,1-.115,5.671l1.087.292.245-12.028Z" transform="translate(-261.475 -146.916)" fill="#263238"/>
          <path id="Tracé_1419" data-name="Tracé 1419" d="M348.755,387s-.048,1.311-.611,1.739-1.759,1.732-7.546,1.392-7.811-1.773-9.787-3.572-2.493-6.54-2.791-8.768c-.571-4.333-2.37-6.6-4.075-8.782a3.8,3.8,0,0,1-.17-2.241,7.3,7.3,0,0,1,6.846,5.026c2.092,5.291,3.695,11.444,8.367,12.9A80.151,80.151,0,0,0,348.755,387Z" transform="translate(-261.337 -145.856)" fill="#263238"/>
          <path id="Tracé_1420" data-name="Tracé 1420" d="M277.663,304.722c.041-3.735,0-8.693-.34-15.275-.394-7.654-.448-13.624-.421-21.734,0-6.153.346-11.58,2.527-23.35-2.309-23.642-3.151-48.072-.36-57.051,2.4-7.709,4.842-10.283,7-14.052,1.127-1.949,3.172-4.849,3.172-7.471a48.35,48.35,0,0,0,17.081,3.328c10.955.1,14.786-2.88,14.786-2.88s4.944,57.275,3.912,75.972c-.611,11.064-1.5,27.439-1.827,35.48-.251,6.208-.971,14.263-.9,17.706a29.322,29.322,0,0,0,1.745,8.727,61.957,61.957,0,0,0,3.586,8.829,8.965,8.965,0,0,0,1.358,2.092,24.005,24.005,0,0,0,2.452,2.384c1.766,1.528,2.649,2.275,2.5,3.695s-1.2,1.976-2.4,2.336c-2.839.849-6.058.5-8.9,0s-6.024-1.847-7.233-4.557a11.342,11.342,0,0,1-.679-2.5,35.967,35.967,0,0,0-2.173-8.252,18.685,18.685,0,0,0-1.582-3.2,8.2,8.2,0,0,1-1.8-3.6c-.116-1.127.754-2.717,1.881-4.415V296.9c.978-1.474.679-2.5.367-7.145-.74-10.059-2.791-17.292-4.51-29.51a55.777,55.777,0,0,1,.353-17.659c-1.168-8.007-3.192-16.4-4.381-21.924-1.929,11.546-3.165,15.784-4.218,24.532-1.453,12.123-8.272,37.5-9.359,44.024s-1.766,10.908-2.268,16.212c-.441,4.6-.781,13.848-1.358,18.066-.924,6.731-7.865,4.673-8.985-1.27C275.924,318.258,277.6,309.918,277.663,304.722Z" transform="translate(-246.195 -81.378)" fill="#b16668"/>
          <path id="Tracé_1421" data-name="Tracé 1421" d="M324.274,360.447c.822-1.453,1.576-1.861,2.37-3.117a6.214,6.214,0,0,1,1.868,3.056c.353,1.155,1.284,6.832,2.676,11.349,1.053,3.4,2.812,5.182,5.23,6.113a9.746,9.746,0,0,0,4.754.537h0c3.009-.414,2.3-2.574,2.3-2.574.679.951,3.566,3.294,5.264,5.012.958.978.509,2.459-.224,3.4-.835.72-2.791,2.167-9.977,1.127-6.371-.93-7.865-3.871-8.469-5.2a31.565,31.565,0,0,1-1.324-5.984,18.67,18.67,0,0,0-2.234-6.344c-.143-.244-.285-.475-.414-.679h0a23.447,23.447,0,0,0-1.515-2.038c-.441-.537-.795-.795-.924-1.3A4.89,4.89,0,0,1,324.274,360.447Z" transform="translate(-261.306 -142.829)" fill="#37474f"/>
          <path id="Tracé_1422" data-name="Tracé 1422" d="M327.051,134.924c-.17,3.179-1.6,12.273-1.6,12.273-12.965,8.782-31.867-.448-31.867-.448l-3.538-21.523s7.763-7.953,1.406-17.93l10.3-.679,11-.054,5.63-.1c3.96,2.907,10.8,10.344,12.069,13.583S332.8,128.139,327.051,134.924Z" transform="translate(-250.548 -62.343)" fill="#f6b26b"/>
          <g id="Groupe_762" data-name="Groupe 762" transform="translate(39.502 44.117)">
            <path id="Tracé_1423" data-name="Tracé 1423" d="M327.051,134.924c-.17,3.179-1.6,12.273-1.6,12.273-12.965,8.782-31.867-.448-31.867-.448l-3.538-21.523s7.763-7.953,1.406-17.93l10.3-.679,11-.054,5.63-.1c3.96,2.907,10.8,10.344,12.069,13.583S332.8,128.139,327.051,134.924Z" transform="translate(-290.05 -106.46)" fill="#351c75"/>
          </g>
          <path id="Tracé_1424" data-name="Tracé 1424" d="M317.917,144.513c-1.121,1.46-6.33,3.253-10.616,1.358A9.692,9.692,0,0,1,301.338,138a8.528,8.528,0,0,0,5.386,9.3C313.332,149.987,317.577,145.974,317.917,144.513Z" transform="translate(-254.14 -72.462)" fill="#263238" opacity="0.1"/>
          <path id="Tracé_1425" data-name="Tracé 1425" d="M292.643,76.535s19.4,7.566,19.4,4.184c3.64-6.737,11.023-8.938,11.023-20.7,0-12.307-10.222-18.338-20.45-18.338h0a18.582,18.582,0,0,0-15.933,8.911c-5.841,1.5-4.347,9.59,1.494,11.043Z" transform="translate(-248.278 -41.56)" fill="#263238"/>
          <path id="Tracé_1426" data-name="Tracé 1426" d="M334.488,42.5l-.958,5.135a2.581,2.581,0,0,0,3.131-2,2.717,2.717,0,0,0-2.173-3.138Z" transform="translate(-264.497 -41.823)" fill="#263238"/>
          <path id="Tracé_1427" data-name="Tracé 1427" d="M339.441,48.8l-5.291.571A2.567,2.567,0,0,0,337,51.741a2.757,2.757,0,0,0,2.438-2.941Z" transform="translate(-264.696 -43.845)" fill="#263238"/>
          <path id="Tracé_1428" data-name="Tracé 1428" d="M314.188,91.267V76.325s1.929,1.908,4.754-.156c2.527-1.854,3.586-5.834,1.813-7.885-1.256-1.447-5.141-2.248-6.663.876,0,0-4.5-.217-10.385-4.387s-7.274-7.858-10.867-8.272c-1.691,1.29-3.335,5.094-3.158,15.132.129,7.423,3.45,10.969,5.148,12.225,1.358,1.039,3.158,1.189,6.147.679v7.036s6.024,9.841,13.156,9.4C324.852,100.307,314.188,91.267,314.188,91.267Z" transform="translate(-250.426 -46.315)" fill="#b16668"/>
          <path id="Tracé_1429" data-name="Tracé 1429" d="M324.244,72.8v4.116h0a2.907,2.907,0,0,1-2.934-2.88V70.06Z" transform="translate(-260.577 -50.665)" fill="#263238"/>
          <path id="Tracé_1430" data-name="Tracé 1430" d="M290.24,83.577v-1.6c1.793-.346,3.09.985,3.552,3.4a12.478,12.478,0,0,1,0,5.535,14.371,14.371,0,0,1-3.552-7.328Z" transform="translate(-250.609 -54.47)" fill="#9a4a4d"/>
          <path id="Tracé_1431" data-name="Tracé 1431" d="M309.447,74.388a1.424,1.424,0,1,0-.007,0Z" transform="translate(-256.768 -51.638)" fill="#263238"/>
          <path id="Tracé_1432" data-name="Tracé 1432" d="M306.307,87.387a1.421,1.421,0,1,0-.007,0Z" transform="translate(-255.761 -55.808)" fill="#9a4a4d"/>
          <path id="Tracé_1433" data-name="Tracé 1433" d="M291.935,68.083l2.791-1.929a1.657,1.657,0,0,0-2.336-.455,1.745,1.745,0,0,0-.455,2.384Z" transform="translate(-251.061 -49.171)" fill="#263238"/>
          <path id="Tracé_1434" data-name="Tracé 1434" d="M294.187,73.108a1.424,1.424,0,1,0-.007,0Z" transform="translate(-251.873 -51.228)" fill="#263238"/>
          <path id="Tracé_1435" data-name="Tracé 1435" d="M302.512,72.71l-.2,7.288-3.905-1.189Z" transform="translate(-253.23 -51.516)" fill="#9a4a4d"/>
          <path id="Tracé_1436" data-name="Tracé 1436" d="M306.3,95.544c3.158-.4,9.651-2.234,10.663-4.754A6.527,6.527,0,0,1,314.688,94c-1.942,1.63-8.388,3.464-8.388,3.464Z" transform="translate(-255.761 -57.316)" fill="#9a4a4d"/>
          <path id="Tracé_1437" data-name="Tracé 1437" d="M306.775,42.092c-6.52-1.487-9.121.4-15.716-.3-2.717-.292-5.175-.414-6.989.5-2.038,1.039-3.267,3.314-2.988,6.248.469,4.944,5.807,6.214,5.807,6.214s4.523-10.188,10.541-10.106S306.775,42.092,306.775,42.092Z" transform="translate(-247.658 -41.504)" fill="#263238"/>
          <path id="Tracé_1438" data-name="Tracé 1438" d="M276.6,107.365c-3.688-.136-5.529.122-8.327,1.44s-32.4,15.675-32.4,15.675-4.184,8.361-.951,9.61,12.66-.754,17.944-2.676c5.766-2.1,18.861-7.362,18.861-7.362l.245,1.453s4.829-1.766,5.311-8.51A28.725,28.725,0,0,0,276.6,107.365Z" transform="translate(-232.468 -62.623)" fill="#b16668"/>
          <path id="Tracé_1439" data-name="Tracé 1439" d="M264.012,115.617,249.58,133.275a26.251,26.251,0,0,0,8.15-6.622c3.287-4.238,8.612-12.123,8.612-12.123Z" transform="translate(-237.564 -64.932)" fill="#9a4a4d"/>
          <path id="Tracé_1440" data-name="Tracé 1440" d="M252.482,98.059h0c.591-.679,1.358-1.616,2-2.493,1.141-1.6,3.729-8.15,5.019-9.081s2.92-3.511,3.64-3.586,1.087,1.7.217,2.968-2.038,3.545-1.3,2.988,4-3.627,6.86-5.9c3.212-2.567,4.564.482,4.951,2.33s1,4.618-.74,6.737a40.831,40.831,0,0,1-4.89,4.924,38.9,38.9,0,0,1-4.6,3.179c-1.746,1.114-3.634,3.016-7.423,7.525s-6.113,9.963-11.077,14.174c-4.51,3.8-9.508,5.433-12.055,3.484s-.53-8.612,1.426-11.58S247.965,102.46,252.482,98.059Z" transform="translate(-231.888 -54.486)" fill="#b16668"/>
          <path id="Tracé_1441" data-name="Tracé 1441" d="M285.1,74.213a.333.333,0,0,0,.231-.1.34.34,0,0,0,0-.482l-3.3-3.443a.34.34,0,0,0-.482,0,.333.333,0,0,0,0,.475L284.86,74.1A.346.346,0,0,0,285.1,74.213Z" transform="translate(-247.79 -50.676)" fill="#e0e0e0"/>
          <path id="Tracé_1442" data-name="Tracé 1442" d="M283.476,77.2a.326.326,0,0,0,.306-.19.34.34,0,0,0-.156-.455l-4.306-2.038a.342.342,0,1,0-.292.618l4.306,2.038A.339.339,0,0,0,283.476,77.2Z" transform="translate(-246.948 -52.084)" fill="#e0e0e0"/>
          <path id="Tracé_1443" data-name="Tracé 1443" d="M278.321,80.936h.048l4.754-.625a.339.339,0,1,0-.088-.672l-4.754.625a.34.34,0,0,0-.292.38A.333.333,0,0,0,278.321,80.936Z" transform="translate(-246.677 -53.738)" fill="#e0e0e0"/>
        </g>
        <path id="Tracé_1444" data-name="Tracé 1444" d="M323.171,281.6c.075-1.358.143-2.669.2-3.919.326-8.041,1.216-24.45,1.827-35.48,1.032-18.7-3.912-75.972-3.912-75.972s-3.831,2.982-14.786,2.88a48.351,48.351,0,0,1-17.081-3.328c0,2.622-2.038,5.522-3.172,7.471-2.153,3.769-4.6,6.344-7,14.052-2.791,8.985-1.949,33.415.36,57.051-2.18,11.77-2.622,17.659-2.649,23.771,0,8.109.082,12.225.475,19.913,3.892,2.907,12.035,1.141,12.035,1.141,1.087-6.52,7.906-31.921,9.359-44.024,1.053-8.748,2.289-12.972,4.218-24.532l4.381,21.924a56.19,56.19,0,0,0-.353,17.659c1.25,8.89,2.676,15.139,3.64,21.734C312.427,283.821,320.549,284.3,323.171,281.6Z" transform="translate(-246.348 -81.375)" fill="#f6b26b"/>
        <path id="Tracé_1445" data-name="Tracé 1445" d="M323.171,281.6c.075-1.358.143-2.669.2-3.919.326-8.041,1.216-24.45,1.827-35.48,1.032-18.7-3.912-75.972-3.912-75.972s-3.831,2.982-14.786,2.88a48.351,48.351,0,0,1-17.081-3.328c0,2.622-2.038,5.522-3.172,7.471-2.153,3.769-4.6,6.344-7,14.052-2.791,8.985-1.949,33.415.36,57.051-2.18,11.77-2.622,17.659-2.649,23.771,0,8.109.082,12.225.475,19.913,3.892,2.907,12.035,1.141,12.035,1.141,1.087-6.52,7.906-31.921,9.359-44.024,1.053-8.748,2.289-12.972,4.218-24.532l4.381,21.924a56.19,56.19,0,0,0-.353,17.659c1.25,8.89,2.676,15.139,3.64,21.734C312.427,283.821,320.549,284.3,323.171,281.6Z" transform="translate(-246.348 -81.375)" fill="#d9d2e9"/>
        <path id="Tracé_1446" data-name="Tracé 1446" d="M326.85,163.435l.115,6.371s-4.2,3.213-11.906,3.729-18.514-2.52-21.509-4.754a10.54,10.54,0,0,0,.808-6.16,38.346,38.346,0,0,0,19.092,4.265C324.235,166.342,326.85,163.435,326.85,163.435Z" transform="translate(-251.671 -80.361)" fill="#37474f"/>
        <path id="Tracé_1447" data-name="Tracé 1447" d="M315.33,230.442l4.53-26.569s7.029-1.793,10.765-7.573a13.973,13.973,0,0,1-8.15,9.644l-5.046,24.871,1.936,19.051Z" transform="translate(-258.658 -91.166)" fill="#263238" opacity="0.6"/>
      </g>
    </g>
    <g id="freepik--character-1--inject-212" transform="translate(86.37 42.125)">
      <g id="freepik--character--inject-212-3" data-name="freepik--character--inject-212" transform="translate(0)">
        <path id="Tracé_1448" data-name="Tracé 1448" d="M241.16,119.4q1.874-3.953,3.708-7.926c.747-1.616,1.487-3.24,2.207-4.863a5.7,5.7,0,0,0,.577-4.34,18.4,18.4,0,0,0-1.392-3.049,33.034,33.034,0,0,1-2.88-8.15,1.2,1.2,0,0,1,.054-.924.951.951,0,0,1,.985-.285,3.626,3.626,0,0,1,2.105,1.888c.326.537,1.481,2.656,2.255,1.963.516-.455.265-1.712.265-2.309a20.865,20.865,0,0,0-.394-4.211c-1.257-6.16-.2-7.743,2.037-7.994,1.963-.217,9.468-.5,10.7,10.989.5,4.625-1.725,13.706-2.893,17.944-1.7,6.113-6.737,17.951-6.737,17.951Z" transform="translate(-156.855 -54.199)" fill="#ffa8a7"/>
        <path id="Tracé_1449" data-name="Tracé 1449" d="M207.78,108.544c4.387-.428,7.675,0,10.629,3.206,3.151,3.4,11.152,17.407,11.152,17.407l5.984-11.322a14.609,14.609,0,0,0,6.024,3.138,8.372,8.372,0,0,0,5.264-.319s-4.075,15.838-7,25.1c-2,6.33-4.618,11.342-6.921,12.055s-5.495,1.066-13.02-8.931-10.473-14.113-10.473-14.113Z" transform="translate(-146.146 -63.589)" fill="#351c75"/>
        <path id="Tracé_1450" data-name="Tracé 1450" d="M237.466,137.762c-1.358,4.5-4.972,11.689-4.36,16.626a16.45,16.45,0,0,1-.537-6.914c.462-4.258,3.4-12.334,3.4-12.334Z" transform="translate(-154.051 -72.166)" fill="#263238"/>
        <path id="Tracé_1451" data-name="Tracé 1451" d="M151.36,384.428l9.413.007,2.7-20.443L151.6,363.53Z" transform="translate(-128.045 -145.439)" fill="#ffa8a7"/>
        <path id="Tracé_1452" data-name="Tracé 1452" d="M203.786,370.287c1.6,2.778,6.744,2.554,11.03,1.569l.5-20.1-12.592-.489Z" transform="translate(-144.522 -141.506)" fill="#ffa8a7"/>
        <path id="Tracé_1453" data-name="Tracé 1453" d="M156.479,203.576c-.34,8.687-2.038,59.367-2.038,59.367-.306,2.493-2.886,6.846-3.4,15.845-.781,13.061,0,41.722,0,41.722a15.069,15.069,0,0,0,11.2.679s7.783-41.131,9.923-53.994c1.861-11.234,7.091-40.6,7.091-40.6l4.639,38.6a64.306,64.306,0,0,0-1.073,13.848c.2,6,3.613,35.141,3.613,35.141a20.905,20.905,0,0,0,12.049.292s2.8-45.233,3.124-50.714c.367-6.255.115-61.438.115-61.438Z" transform="translate(-127.833 -93.719)" fill="#f6b26b"/>
        <path id="Tracé_1454" data-name="Tracé 1454" d="M156.479,203.576c-.34,8.687-2.038,59.367-2.038,59.367-.306,2.493-2.886,6.846-3.4,15.845-.781,13.061,0,41.722,0,41.722a15.069,15.069,0,0,0,11.2.679s7.783-41.131,9.923-53.994c1.861-11.234,7.091-40.6,7.091-40.6l4.639,38.6a64.306,64.306,0,0,0-1.073,13.848c.2,6,3.613,35.141,3.613,35.141a20.905,20.905,0,0,0,12.049.292s2.8-45.233,3.124-50.714c.367-6.255.115-61.438.115-61.438Z" transform="translate(-127.833 -93.719)" fill="#8e7cc3" opacity="0.4"/>
        <path id="Tracé_1455" data-name="Tracé 1455" d="M192.75,234.532s8.225-2.336,13.828-7.342c0,0-2.628,4.483-10.065,8.463l.421,33.687Z" transform="translate(-141.324 -101.698)" opacity="0.2"/>
        <path id="Tracé_1456" data-name="Tracé 1456" d="M170.34,411.819a4.332,4.332,0,0,1-.238,2.866c-.367.53-2.615,2.323-6.506,2.445-3.722.122-7.009-.509-9.135-1.976s-3.117-3.036-3.24-5.155.2-4.15-.747-5.814c-.869-1.535-2.289-3.287-2.581-4.116a8.225,8.225,0,0,1,.143-4.3Z" transform="translate(-126.853 -155.782)" fill="#263238"/>
        <path id="Tracé_1457" data-name="Tracé 1457" d="M161.017,389.7a7.96,7.96,0,0,0,.34,2.363,21.5,21.5,0,0,0,2.085,4.754,20.446,20.446,0,0,0,1.46,2.241c1.073,1.358,2.425,2.527,3.559,3.858a7.615,7.615,0,0,1,2.112,4.639c.041,2.914-3.151,3.776-5.6,4.116a17.83,17.83,0,0,1-7.885-.679,7.26,7.26,0,0,1-5.094-6c-.1-.815,0-1.637-.081-2.452a11.458,11.458,0,0,0-2.038-5.175,15.543,15.543,0,0,1-1.623-2.839c-.679-1.834,0-3.831.55-5.61.482-1.528,1.019-3.267,1.555-3.1,0,.815,0,.89.523,1.453.679.72.679,1.752,1.44,2.391a10.534,10.534,0,0,1-.455-2.085,1.168,1.168,0,0,1,.19-.815,2.186,2.186,0,0,1,.917-.448,18.074,18.074,0,0,1,3.559-.679,10.5,10.5,0,0,1,3.45.115,1.508,1.508,0,0,1,.849.53,1.773,1.773,0,0,1,.272,1.012C161.106,387.719,161.024,388.921,161.017,389.7Z" transform="translate(-126.958 -152.499)" fill="#455a64"/>
        <path id="Tracé_1458" data-name="Tracé 1458" d="M166.591,401.83c-1.053-.856-3.484-.964-4.815-.869a7.994,7.994,0,0,0-3.824,1.175.863.863,0,0,1-1.107-.129h0a.815.815,0,0,1,.136-1.236,8.151,8.151,0,0,1,4.306-1.406c3.274-.1,4.211.5,4.211.5S166.944,400.906,166.591,401.83Z" transform="translate(-129.733 -156.932)" fill="#f5f5f5"/>
        <path id="Tracé_1459" data-name="Tracé 1459" d="M169.881,406.42c-1.358-.856-4-.849-5.338-.754a7.505,7.505,0,0,0-3.722,1.25.863.863,0,0,1-1.107-.136h0a.808.808,0,0,1,.129-1.229A8.531,8.531,0,0,1,164.25,404c3.274-.1,4.075.6,4.075.6A2.717,2.717,0,0,1,169.881,406.42Z" transform="translate(-130.652 -158.418)" fill="#f5f5f5"/>
        <path id="Tracé_1460" data-name="Tracé 1460" d="M159.565,394.713a8,8,0,0,1,4.075.509c.557.346.9,1.27.523,1.481a7.62,7.62,0,0,0-3.62-.638,10.867,10.867,0,0,0-3.566.829c-.285.116-.625.278-.917.421a.774.774,0,0,1-1.066-.374h0a.74.74,0,0,1,.319-.924A10.676,10.676,0,0,1,159.565,394.713Z" transform="translate(-129.193 -155.431)" fill="#f5f5f5"/>
        <path id="Tracé_1461" data-name="Tracé 1461" d="M235.61,395.4a3.545,3.545,0,0,1,0,2.615c-.333.781-4.218,3.219-9.617,3.117a22.48,22.48,0,0,1-11.315-3.4c-2.119-1.263-4.272-1.419-6.941-1.44s-6.242-1.2-6.88-2.411-.075-3.4-.075-3.4Z" transform="translate(-143.827 -154.089)" fill="#263238"/>
        <path id="Tracé_1462" data-name="Tracé 1462" d="M213.049,374.4l.421-.109a1.7,1.7,0,0,1,.679-.068,1.358,1.358,0,0,1,.679.414,13.785,13.785,0,0,1,1.474,2.092c1.216,1.793,3.661,3.206,6.316,4.469,1.8.863,3.559,1.515,5.433,2.248s4.374,1.134,5.868,2.038c2.187,1.324,2.628,4.89.285,6.411-2.038,1.318-7.417,2.9-13.224,1.549-3.165-.734-6.792-3.905-10.9-4.034-2.615-.075-7.58-.577-9.352-2.472-.679-.849.034-3.674.6-6.113.611-2.656.333-6.629,1.515-6.588l.075,1.358c.115.4,1.053.788,1.358,1.093l1.059,1.114a3.891,3.891,0,0,0,4.951,1.161c.048,0-.564-2.038-.625-2.235a.9.9,0,0,1-.068-.5.856.856,0,0,1,.319-.394A8.449,8.449,0,0,1,213.049,374.4Z" transform="translate(-143.795 -148.868)" fill="#455a64"/>
        <path id="Tracé_1463" data-name="Tracé 1463" d="M226.245,382.014a2.425,2.425,0,0,0-1.983-1.2c-1.2-.163-3.246.815-4.5,1.949a.971.971,0,0,0,.211,1.6h0a.971.971,0,0,0,1.107-.177,7.471,7.471,0,0,1,5.162-2.167Z" transform="translate(-149.886 -150.978)" fill="#f5f5f5"/>
        <path id="Tracé_1464" data-name="Tracé 1464" d="M231.423,384.855a2.785,2.785,0,0,0-2.336-1.066,8.7,8.7,0,0,0-4.924,2.112.951.951,0,0,0,.2,1.548h0a.93.93,0,0,0,1.066-.177,7.471,7.471,0,0,1,5.99-2.418Z" transform="translate(-151.302 -151.937)" fill="#f5f5f5"/>
        <path id="Tracé_1465" data-name="Tracé 1465" d="M237.608,387.358a3.111,3.111,0,0,0-2.418-.951,8.361,8.361,0,0,0-4.713,2.119.958.958,0,0,0,.211,1.549h0a.924.924,0,0,0,1.06-.177,7.138,7.138,0,0,1,5.861-2.54Z" transform="translate(-153.33 -152.777)" fill="#f5f5f5"/>
        <path id="Tracé_1466" data-name="Tracé 1466" d="M178.373,108.61c-3.477.238-7.58.272-10.9.557-4.286.374-7.8,4.632-9.142,11.4-1.474,7.471,2.357,29.2,2.357,29.2l-2.656,25.306c6.038,4.876,32.5,8.462,46.184-.516,0,0,1.6-43.209.856-49.879-1.019-9.189-3-14.942-13.257-16.062Z" transform="translate(-130.173 -63.654)" fill="#b4a7d6"/>
        <path id="Tracé_1467" data-name="Tracé 1467" d="M137.442,178.46q2.268,3.892,4.584,7.756,1.691,2.822,3.4,5.617c.428.679.856,1.358,1.311,2.038a4.34,4.34,0,0,0,.842.883c.557.387,1.718.143,2.391.17q4.972.163,9.916.72a1.881,1.881,0,0,1,1.46.632,1.29,1.29,0,0,1-.462,1.644,3.783,3.783,0,0,1-1.786.53l-2.866.34a2.208,2.208,0,0,0-1.141.367c-1.039.842.944,1.854,1.542,2.268a21.693,21.693,0,0,0,3.8,2.112c5.963,2.513,6.7,4.333,5.6,6.4-.958,1.8-5.08,8.34-15.553,2.717-4.224-2.268-10.649-9.434-13.583-12.9-4.218-4.992-11.342-16.151-11.342-16.151Z" transform="translate(-119.764 -86.064)" fill="#ffa8a7"/>
        <path id="Tracé_1468" data-name="Tracé 1468" d="M154.365,109.43c-12.429.177-11.709,2.486-20.328,15.064-6.968,10.188-14.745,20.674-16.979,27.024-.6,1.7,9.162,16.647,14.738,22.976,4.829-.224,8.415-4.809,9.59-7.023-1.467-2.791-6.629-13.55-6.629-13.55L147.9,136.128s5.189-4.32,6.581-10.452C156.1,118.382,155.445,111.121,154.365,109.43Z" transform="translate(-117.031 -63.917)" fill="#351c75"/>
        <path id="Tracé_1469" data-name="Tracé 1469" d="M176.94,78.1s2.683,9.013,3.647,10.867a3.647,3.647,0,0,0,2.812,2.139l.183-6.473Z" transform="translate(-136.252 -53.866)" fill="#263238"/>
        <path id="Tracé_1470" data-name="Tracé 1470" d="M181.1,56.956a5.033,5.033,0,0,0-5.793,1.983c-1.358,1.881-1.834,6.235,2.527,16.939l3.878-3.9Z" transform="translate(-135.423 -46.998)" fill="#263238"/>
        <path id="Tracé_1471" data-name="Tracé 1471" d="M182.444,70.477a5.488,5.488,0,0,0-1.521-2.513c-.9-.964-4.5-2.038-6.113,1.032s1.127,7.084,3.253,8.32a3.194,3.194,0,0,0,4.326-.577l-.068,14.507h0c1.27,2.92,7,5.549,10.4,5.114,2.717-.34,5.223-2.479,2.8-5.6l.2-4.129a25.728,25.728,0,0,0,5.433.55c2.988-.312,4.972-2.56,6.038-5.732,1.7-5.087,2.459-9.23,1.732-19.445-.829-11.193-13.767-11.953-20.973-7.9S182.444,70.477,182.444,70.477Z" transform="translate(-135.412 -45.448)" fill="#ffa8a7"/>
        <path id="Tracé_1472" data-name="Tracé 1472" d="M215.664,47.506a4.5,4.5,0,0,0-1.236-4.143c-1.386-1.338-3.824-1.06-6.113-.367-2.112.632-4.591,2.038-10.656,1.82-3.145-.129-7.26-.781-10.439.679-3.613,1.671-4.985,3.715-5.243,6.2-.081.795.679,1.453.835,2.234a5.9,5.9,0,0,1,.394,2.078c-.17,1.236-.441,2.465-.6,3.7a29.205,29.205,0,0,0-.3,3.613,1.991,1.991,0,0,0,.89,1.413,5.664,5.664,0,0,1,1.542,2.241c.258.523.509,1.827,1.019,2.187,1.562,1.093,1.732-2.452,1.813-3.131a35.9,35.9,0,0,0-.034-4.7,5.651,5.651,0,0,0,4.157-1.915,4.815,4.815,0,0,0,1.039-2.3,7.356,7.356,0,0,0,.129-1.406c1.277,1.521,3.688,1.868,5.209,1.915a5.409,5.409,0,0,0,4.6-1.97,7.029,7.029,0,0,0,2.268,2.167,8.639,8.639,0,0,0,5.073.754,5.175,5.175,0,0,0,3.837-2.778,4.917,4.917,0,0,0-.414-5.033C213.851,50.447,215.481,49.055,215.664,47.506Z" transform="translate(-137.866 -42.418)" fill="#263238"/>
        <path id="Tracé_1473" data-name="Tracé 1473" d="M180.107,56.238l-4.347-2.622a2.465,2.465,0,0,1,3.437-.951,2.669,2.669,0,0,1,.91,3.572Z" transform="translate(-135.873 -45.594)" fill="#263238"/>
        <path id="Tracé_1474" data-name="Tracé 1474" d="M200.182,100.067s-6.568-1.664-8.829-3.009a7.655,7.655,0,0,1-3.043-3.328,10.4,10.4,0,0,0,1.63,3.824c1.589,2.255,10.147,4.279,10.147,4.279Z" transform="translate(-139.899 -58.88)" fill="#f28f8f"/>
        <path id="Tracé_1475" data-name="Tracé 1475" d="M203.905,77.825a1.426,1.426,0,1,1-1.358-1.555,1.447,1.447,0,0,1,1.358,1.555Z" transform="translate(-143.99 -53.278)" fill="#263238"/>
        <path id="Tracé_1476" data-name="Tracé 1476" d="M202.006,70.892l-3.022,1.481a1.766,1.766,0,0,1,.8-2.309,1.644,1.644,0,0,1,2.221.829Z" transform="translate(-143.272 -51.235)" fill="#263238"/>
        <path id="Tracé_1477" data-name="Tracé 1477" d="M204.793,90.36l4.224,1.827a2.255,2.255,0,0,1-3,1.284,2.4,2.4,0,0,1-1.229-3.111Z" transform="translate(-145.129 -57.799)" fill="#f28f8f"/>
        <path id="Tracé_1478" data-name="Tracé 1478" d="M221.651,71.884,219.07,69.7a1.616,1.616,0,0,1,2.35-.245,1.779,1.779,0,0,1,.231,2.431Z" transform="translate(-149.768 -50.964)" fill="#263238"/>
        <path id="Tracé_1479" data-name="Tracé 1479" d="M220.429,77.454a1.392,1.392,0,0,1-1.447,1.358,1.419,1.419,0,0,1-1.3-1.5,1.36,1.36,0,0,1,2.717.143Z" transform="translate(-149.321 -53.199)" fill="#263238"/>
        <path id="Tracé_1480" data-name="Tracé 1480" d="M211.71,75.73l.041,8.68,4.6-1.311Z" transform="translate(-147.407 -53.105)" fill="#f28f8f"/>
        <path id="Tracé_1481" data-name="Tracé 1481" d="M229.313,86.434a.333.333,0,0,1-.231-.1.34.34,0,0,1,0-.482L232.39,82.4a.341.341,0,0,1,.5.469l-3.321,3.457A.312.312,0,0,1,229.313,86.434Z" transform="translate(-152.948 -55.211)" fill="#e0e0e0"/>
        <path id="Tracé_1482" data-name="Tracé 1482" d="M230.47,89.433a.346.346,0,0,1-.306-.2.34.34,0,0,1,.163-.455l4.32-2.038a.34.34,0,0,1,.3.611l-4.326,2.038a.367.367,0,0,1-.149.041Z" transform="translate(-153.317 -56.628)" fill="#e0e0e0"/>
        <path id="Tracé_1483" data-name="Tracé 1483" d="M235.446,93.183H235.4l-4.754-.632a.34.34,0,0,1-.292-.38.346.346,0,0,1,.38-.292l4.754.632a.34.34,0,0,1,.292.38A.346.346,0,0,1,235.446,93.183Z" transform="translate(-153.389 -58.286)" fill="#e0e0e0"/>
      </g>
    </g>
  </g>
</svg>
