<?xml version="1.0" encoding="UTF-8"?>
<svg id="Calque_2" data-name="Calque 2" xmlns="http://www.w3.org/2000/svg" viewBox="0 0 325 202.08">
    <defs>
        <style>
            .cls-1 {
            fill: #FFFFFF;
            }
        </style>
    </defs>
    <g id="Calque_1-2" data-name="Calque 1">
        <path class="cls-1" d="m324.69,113.4c-2.19-5.85,3.28-44.93-116.37-40.64-.25,0-.49.02-.74.05-5.7.53-72.87,7.1-84.1,11.31-8.29,3.11-18.83-24.8-9.67-40.95,2.81-4.96,10.34-3,10.37,2.7,0,.13,0,.25,0,.38.08,7.72,6.96,13.59,14.6,12.52,23.1-3.23,77.73-10.03,101.36-5.76,16.11,2.91-1.46-66.75-111.99-50.58C17.64,18.61-1.39,99.86.08,130.6c1.41,29.52,15.64,85.38,71.23,65.12,4.09-1.49,7.72-4.04,10.53-7.36,9.15-10.81,35.14-34.74,60.99,4.41,1.09,1.64,2.53,3.03,4.22,4.03,26.76,15.87,46.31-9.06,46.31-9.06,0,0,.74-.86,1.07-1.33,3.43-4.76,29.05-33.97,57.46,3.4.23.3.47.6.72.88,40.1,44.28,76.1-62.32,72.08-77.28ZM50.58,174.52c-10.11,0-18.3-11.47-18.3-25.62s8.19-25.62,18.3-25.62,18.3,11.47,18.3,25.62-8.19,25.62-18.3,25.62Zm115.65,0c-10.11,0-18.3-11.47-18.3-25.62s8.19-25.62,18.3-25.62,18.3,11.47,18.3,25.62-8.19,25.62-18.3,25.62Zm133.3-46.57c-2.18,8.04-10.54,12.73-18.56,10.45-10.36-2.94-30.13-6.63-55.72-.74-16.9,3.89-27.37-17.98-13.74-28.7,1.12-.88,2.36-1.72,3.76-2.52,7.41-4.24,68.8-5.86,81.98,4.39,3.35,2.6,4.16,10.18,2.28,17.11Z"/>
    </g>
</svg>