<?xml version="1.0" encoding="UTF-8"?>
<svg id="Calque_2" data-name="Calque 2" xmlns="http://www.w3.org/2000/svg" viewBox="0 0 903.53 196.93">
  <defs>
    <style>
      .cls-1 {
        fill: #f6b26b;
      }

      .cls-2 {
        fill: #351c75;
      }

      .cls-3 {
        fill: none;
        stroke: #f6b26b;
        stroke-linecap: round;
        stroke-miterlimit: 10;
        stroke-width: 8px;
      }
    </style>
  </defs>
  <g id="Calque_2-2" data-name="Calque 2">
    <g>
      <path class="cls-1" d="m299.72,104.68c-2.03-5.4,3.03-41.48-107.42-37.51-.23,0-.46.02-.68.04-5.26.49-67.26,6.55-77.63,10.44-7.65,2.87-17.38-22.89-8.92-37.8,2.6-4.58,9.55-2.77,9.58,2.5,0,.12,0,.23,0,.35.07,7.12,6.42,12.55,13.48,11.56,21.33-2.98,71.75-9.26,93.57-5.32,14.87,2.69-1.35-61.62-103.37-46.69C16.28,17.18-1.28,92.18.07,120.56c1.3,27.25,14.44,78.81,65.75,60.11,3.78-1.38,7.12-3.73,9.72-6.8,8.44-9.98,32.44-32.07,56.3,4.07,1,1.52,2.34,2.8,3.9,3.72,24.7,14.65,42.74-8.37,42.74-8.37,0,0,.68-.8.99-1.22,1.87-2.59,25.45-33.16,53.04,3.14.21.28.43.55.67.81,37.02,40.88,70.24-57.53,66.54-71.33m-253.03,56.42c-9.33,0-16.89-10.59-16.89-23.65s7.56-23.65,16.89-23.65,16.89,10.59,16.89,23.65-7.56,23.65-16.89,23.65m106.75,0c-9.33,0-16.89-10.59-16.89-23.65s7.56-23.65,16.89-23.65,16.89,10.59,16.89,23.65-7.56,23.65-16.89,23.65m123.05-42.99c-2.01,7.43-9.73,11.75-17.13,9.65-9.57-2.72-27.81-6.12-51.44-.68-15.6,3.59-25.27-16.6-12.68-26.49,1.03-.81,2.18-1.59,3.47-2.32,6.84-3.91,63.51-5.41,75.67,4.05,3.09,2.4,3.84,9.4,2.11,15.79"/>
      <path class="cls-2" d="m370.95,168.65l7.42-60.99c.3-2.45,2.38-4.3,4.85-4.3h4.11c1.62,0,2.95.36,3.98,1.08s1.55,1.87,1.55,3.44c0,.32-.02.86-.07,1.62-.05.77-.09,1.97-.13,3.61-.04,1.34-.11,3.12-.2,5.34-.02.38.49.52.67.19,2.63-4.78,5.49-8.52,8.57-11.24,3.38-2.97,6.89-4.46,10.53-4.46,1.1,0,2.21.15,3.33.44,1.29.33,2.11,1.61,1.86,2.93l-2.63,13.78c-2.25-.94-4.39-1.42-6.41-1.42-4.01,0-7.52,1.91-10.53,5.74-3.01,3.82-5.49,9.8-7.42,17.93,0,.01,0,.03,0,.04l-3.16,26.3c-.27,2.28-2.2,3.99-4.5,3.99h-8.25c-2.16,0-3.84-1.89-3.58-4.04"/>
      <path class="cls-2" d="m417.36,190.41l10.04-82.37c.32-2.66,2.58-4.66,5.27-4.66h3.74c1.53,0,2.84.33,3.92.98,1.08.65,1.62,1.72,1.62,3.21,0,.27-.02.75-.07,1.45-.05.7-.09,1.8-.14,3.31-.06,1.89,2.29,2.79,3.52,1.35,2.33-2.71,4.83-5.01,7.51-6.89,4.21-2.95,8.65-4.42,13.33-4.42,2.88,0,5.5.53,7.86,1.59,2.36,1.06,4.38,2.65,6.04,4.76,1.66,2.12,2.95,4.79,3.85,8.03.9,3.24,1.35,7.04,1.35,11.41,0,3.91-.4,7.76-1.21,11.54-.81,3.78-1.96,7.36-3.44,10.73-1.49,3.38-3.25,6.48-5.3,9.31-2.05,2.84-4.33,5.29-6.85,7.36-2.52,2.07-5.21,3.69-8.07,4.86-2.86,1.17-5.82,1.75-8.88,1.75s-5.93-.55-8.47-1.65c-1.41-.61-2.72-1.36-3.91-2.24-1.21-.9-2.95-.11-3.13,1.39l-2.48,20.09c-.28,2.29-2.23,4.02-4.55,4.02h-7.21c-2.62,0-4.66-2.29-4.34-4.9m42.27-74.96c-1.85,0-3.71.62-5.6,1.86-1.89,1.24-3.71,2.95-5.47,5.13-1.76,2.18-3.39,4.76-4.89,7.73-1.48,2.91-2.75,6.05-3.82,9.39-.04.13-.07.26-.09.39l-1.88,15.63c-.08.66.18,1.3.67,1.75,1.33,1.22,2.82,2.11,4.45,2.67,1.96.68,3.9,1.01,5.84,1.01,2.97,0,5.67-.92,8.1-2.77,2.43-1.84,4.51-4.25,6.24-7.22,1.73-2.97,3.07-6.31,4.02-10.02.95-3.71,1.42-7.44,1.42-11.17,0-4.86-.79-8.47-2.36-10.83-1.58-2.36-3.78-3.54-6.61-3.54"/>
      <path class="cls-2" d="m486.36,190.41l10.04-82.37c.32-2.66,2.58-4.66,5.27-4.66h3.74c1.53,0,2.84.33,3.92.98,1.08.65,1.62,1.72,1.62,3.21,0,.27-.02.75-.07,1.45-.05.7-.09,1.8-.14,3.31-.06,1.89,2.29,2.79,3.52,1.35,2.33-2.71,4.83-5.01,7.51-6.89,4.21-2.95,8.65-4.42,13.33-4.42,2.88,0,5.5.53,7.86,1.59,2.36,1.06,4.38,2.65,6.04,4.76,1.66,2.12,2.95,4.79,3.85,8.03.9,3.24,1.35,7.04,1.35,11.41,0,3.91-.4,7.76-1.21,11.54-.81,3.78-1.96,7.36-3.44,10.73-1.49,3.38-3.25,6.48-5.3,9.31-2.05,2.84-4.33,5.29-6.85,7.36-2.52,2.07-5.21,3.69-8.07,4.86-2.86,1.17-5.82,1.75-8.88,1.75s-5.93-.55-8.47-1.65c-1.41-.61-2.72-1.36-3.91-2.24-1.21-.9-2.95-.11-3.13,1.39l-2.48,20.09c-.28,2.29-2.23,4.02-4.55,4.02h-7.21c-2.62,0-4.66-2.29-4.34-4.9m42.27-74.96c-1.85,0-3.71.62-5.6,1.86-1.89,1.24-3.71,2.95-5.47,5.13-1.76,2.18-3.39,4.76-4.89,7.73-1.48,2.91-2.75,6.05-3.82,9.39-.04.13-.07.26-.09.39l-1.88,15.63c-.08.66.18,1.3.67,1.75,1.33,1.22,2.82,2.11,4.45,2.67,1.96.68,3.9,1.01,5.84,1.01,2.97,0,5.67-.92,8.1-2.77,2.43-1.84,4.51-4.25,6.24-7.22,1.73-2.97,3.07-6.31,4.02-10.02.95-3.71,1.42-7.44,1.42-11.17,0-4.86-.79-8.47-2.36-10.83-1.58-2.36-3.78-3.54-6.61-3.54"/>
      <path class="cls-2" d="m588.14,173.71c-3.83,0-7.37-.64-10.63-1.92-3.26-1.28-6.08-3.16-8.44-5.64-2.36-2.47-4.22-5.51-5.57-9.11-1.35-3.6-2.02-7.72-2.02-12.35,0-5.98.96-11.56,2.87-16.74,1.91-5.17,4.52-9.65,7.83-13.43,3.31-3.78,7.17-6.75,11.58-8.91,4.41-2.16,9.11-3.24,14.11-3.24,3.83,0,7.37.64,10.63,1.92,3.26,1.28,6.09,3.16,8.47,5.64,2.39,2.48,4.25,5.51,5.6,9.11,1.35,3.6,2.03,7.72,2.03,12.35,0,5.94-.97,11.49-2.9,16.64-1.94,5.15-4.56,9.63-7.86,13.43-3.31,3.8-7.17,6.79-11.58,8.98-4.41,2.18-9.11,3.27-14.11,3.27m1.48-12.83c2.79,0,5.31-.8,7.56-2.4,2.25-1.6,4.17-3.74,5.77-6.41,1.6-2.68,2.82-5.79,3.68-9.35.85-3.56,1.28-7.29,1.28-11.21,0-5.62-.96-9.76-2.87-12.42-1.91-2.66-4.8-3.98-8.67-3.98-2.79,0-5.31.79-7.56,2.36-2.25,1.57-4.16,3.71-5.74,6.41-1.58,2.7-2.79,5.83-3.64,9.38-.86,3.56-1.28,7.31-1.28,11.27,0,5.63.95,9.75,2.83,12.39,1.89,2.63,4.77,3.95,8.64,3.95"/>
      <path class="cls-2" d="m327.14,175.71c-3.83,0-7.37-.64-10.63-1.92-3.26-1.28-6.08-3.16-8.44-5.64-2.36-2.47-4.22-5.51-5.57-9.11-1.35-3.6-2.02-7.72-2.02-12.35,0-5.98.96-11.56,2.87-16.74,1.91-5.17,4.52-9.65,7.83-13.43,3.31-3.78,7.17-6.75,11.58-8.91,4.41-2.16,9.11-3.24,14.11-3.24,3.83,0,7.37.64,10.63,1.92,3.26,1.28,6.09,3.16,8.47,5.64,2.39,2.48,4.25,5.51,5.6,9.11,1.35,3.6,2.03,7.72,2.03,12.35,0,5.94-.97,11.49-2.9,16.64-1.94,5.15-4.56,9.63-7.86,13.43-3.31,3.8-7.17,6.79-11.58,8.98-4.41,2.18-9.11,3.27-14.11,3.27m1.48-12.83c2.79,0,5.31-.8,7.56-2.4,2.25-1.6,4.17-3.74,5.77-6.41,1.6-2.68,2.82-5.79,3.68-9.35.85-3.56,1.28-7.29,1.28-11.21,0-5.62-.96-9.76-2.87-12.42-1.91-2.66-4.8-3.98-8.67-3.98-2.79,0-5.31.79-7.56,2.36-2.25,1.57-4.16,3.71-5.74,6.41-1.58,2.7-2.79,5.83-3.64,9.38-.86,3.56-1.28,7.31-1.28,11.27,0,5.63.95,9.75,2.83,12.39,1.89,2.63,4.77,3.95,8.64,3.95"/>
      <path class="cls-2" d="m656.99,173.71c-3.83,0-7.37-.64-10.63-1.92-3.26-1.28-6.07-3.16-8.44-5.64-2.36-2.47-4.22-5.51-5.57-9.11-1.35-3.6-2.02-7.72-2.02-12.35,0-5.98.96-11.56,2.87-16.74,1.91-5.17,4.52-9.65,7.83-13.43,3.31-3.78,7.16-6.75,11.58-8.91,4.41-2.16,9.11-3.24,14.11-3.24,3.83,0,7.37.64,10.63,1.92,3.26,1.28,6.09,3.16,8.47,5.64,2.39,2.48,4.25,5.51,5.6,9.11,1.35,3.6,2.03,7.72,2.03,12.35,0,5.94-.97,11.49-2.9,16.64-1.94,5.15-4.56,9.63-7.86,13.43-3.31,3.8-7.17,6.79-11.58,8.98-4.41,2.18-9.11,3.27-14.11,3.27m1.48-12.83c2.79,0,5.31-.8,7.56-2.4,2.25-1.6,4.17-3.74,5.77-6.41,1.6-2.68,2.82-5.79,3.68-9.35.85-3.56,1.28-7.29,1.28-11.21,0-5.62-.96-9.76-2.87-12.42-1.91-2.66-4.8-3.98-8.67-3.98-2.79,0-5.31.79-7.56,2.36-2.25,1.57-4.16,3.71-5.74,6.41-1.58,2.7-2.79,5.83-3.65,9.38-.86,3.56-1.28,7.31-1.28,11.27,0,5.63.94,9.75,2.83,12.39,1.89,2.63,4.77,3.95,8.64,3.95"/>
      <path class="cls-2" d="m701.38,166.72l10.89-89.88c.31-2.55,2.47-4.46,5.03-4.46h7.45c2.37,0,4.21,2.08,3.93,4.43l-10.98,90.65c-.36,2.98-2.89,5.22-5.89,5.22h-5.13c-3.2,0-5.67-2.8-5.29-5.97"/>
      <path class="cls-2" d="m759.16,108.13s-5.69,58.97-6.07,59.53c-1,5-3,5-3,5l-12.58.03s-2.42-.03-2.24-2.65c-.17-.38,7.43-62.01,7.43-62.01.31-2.61,2.53-4.58,5.17-4.58h7.13c2.51,0,4.46,2.2,4.16,4.69m4.75-24.87c0,1.44-.3,2.79-.91,4.05-.61,1.26-1.4,2.36-2.36,3.31-.97.95-2.08,1.7-3.34,2.26-1.26.56-2.57.84-3.91.84s-2.58-.28-3.82-.84c-1.24-.56-2.33-1.32-3.27-2.26-.95-.94-1.7-2.05-2.26-3.31-.65-1.45-.92-3.03-.82-4.72.07-1.15.35-2.3.82-3.36.59-1.34,1.37-2.51,2.34-3.5.95-.97,2.04-1.73,3.27-2.29,1.24-.56,2.51-.84,3.81-.84s2.65.28,3.91.84c1.26.56,2.37,1.32,3.34,2.26.97.95,1.74,2.07,2.33,3.38.58,1.31.88,2.7.88,4.18"/>
      <path class="cls-2" d="m768.78,168.03l6.88-57.45c.49-4.11,3.98-7.21,8.13-7.21h1.24c1.76,0,3.11.43,4.08,1.28.97.86,1.45,2.23,1.45,4.12-.14,2.72,3.13,4.14,5.07,2.21,1.95-1.93,4-3.54,6.14-4.81,4.27-2.54,8.68-3.81,13.23-3.81,2.57,0,4.9.46,6.99,1.38,2.09.92,3.88,2.27,5.37,4.05,1.48,1.78,2.63,3.96,3.44,6.55.81,2.59,1.22,5.57,1.22,8.94,0,.85-.03,1.72-.1,2.6-.07.88-.15,1.79-.24,2.74l-4.65,39.42c-.31,2.66-2.57,4.66-5.24,4.66h-5.96c-3.2,0-5.69-2.81-5.31-5.99.6-5.06,1.13-9.51,1.59-13.35.63-5.29,1.15-9.69,1.55-13.2.41-3.51.72-6.27.95-8.27.22-2,.39-3.52.51-4.56.11-1.03.18-1.72.2-2.06.02-.34.03-.62.03-.84,0-2.97-.54-5.12-1.62-6.45-1.08-1.33-2.77-1.99-5.06-1.99-1.85,0-3.76.54-5.74,1.62-1.98,1.08-3.87,2.61-5.67,4.59-1.8,1.98-3.44,4.37-4.93,7.16-1.45,2.73-2.65,5.76-3.58,9.1-.04.14-.07.29-.08.44l-3.32,29.86c-.25,2.25-2.15,3.94-4.41,3.94h-8.01c-2.5,0-4.43-2.18-4.13-4.66"/>
      <path class="cls-2" d="m893.46,123.49c0,2.07-.23,3.93-.67,5.57-.45,1.64-1,3.16-1.65,4.56-.65,1.39-1.36,2.71-2.13,3.95-.77,1.24-1.48,2.5-2.16,3.78-.67,1.28-1.23,2.63-1.65,4.05-.43,1.42-.64,2.98-.64,4.69,0,1.85.38,3.54,1.15,5.1.77,1.55,1.6,3.14,2.5,4.76.9,1.62,1.73,3.35,2.5,5.2.77,1.85,1.15,3.98,1.15,6.41,0,3.42-.77,6.67-2.29,9.75-1.53,3.08-3.74,5.78-6.61,8.1-2.88,2.32-6.39,4.15-10.53,5.5-4.14,1.35-8.82,2.03-14.04,2.03-4.28,0-8.11-.44-11.51-1.32-3.4-.88-6.3-2.1-8.71-3.68-2.41-1.58-4.25-3.43-5.53-5.57-1.28-2.14-1.92-4.49-1.92-7.05,0-3.83.97-7.04,2.9-9.65,1.93-2.61,4.43-4.71,7.49-6.31,3.06-1.6,6.49-2.74,10.29-3.44,3.8-.7,7.59-1.05,11.37-1.05,1.84,0,3.64.08,5.4.24,1.24.11,2.43.25,3.57.42.67.1,1.25-.48,1.12-1.15-.05-.26-.1-.52-.14-.78-.11-.72-.17-1.49-.17-2.29,0-2.36.59-4.94,1.77-7.74.11-.27-.18-.52-.43-.37-1.5.92-1.16,1.64-2.99,2.17-2.16.63-6.77.95-9.83.95-2.61,0-5.1-.43-7.46-1.28-2.36-.85-4.44-2.16-6.24-3.91-1.8-1.76-3.23-3.95-4.29-6.58-1.06-2.63-1.59-5.7-1.59-9.21s.63-6.67,1.89-9.89c1.26-3.22,3.13-6.1,5.6-8.64,2.47-2.54,5.54-4.58,9.18-6.11,3.65-1.53,7.88-2.29,12.69-2.29,2.57,0,5.01.3,7.33.91,2.31.61,4.43,1.49,6.35,2.65.02,0,.03.01.05.01h16.24c1.64,0,2.91,1.45,2.68,3.08l-.32,2.32c-.18,1.08-.53,2-1.05,2.77-.52.77-1.27,1.28-2.26,1.55l-7,1.86c-.05.01-.08.06-.07.11.21.87.38,1.79.48,2.74.11.99.17,2.03.17,3.11m-16.81,49.48c0-.63-.03-1.25-.1-1.85-.12-1.02-.91-1.84-1.93-1.99-1.79-.27-3.46-.47-5.03-.61-2.05-.18-3.97-.27-5.77-.27-3.06,0-5.68.25-7.86.74-2.18.5-3.98,1.15-5.4,1.96-1.42.81-2.45,1.75-3.1,2.84-.65,1.08-.98,2.23-.98,3.44,0,2.7,1.08,4.75,3.24,6.14,2.16,1.39,5.49,2.09,9.99,2.09,2.52,0,4.81-.32,6.89-.95,2.07-.63,3.85-1.51,5.33-2.63,1.48-1.12,2.64-2.45,3.48-3.98.83-1.53,1.25-3.17,1.25-4.93m-10.87-32.74c2.03,0,3.8-.47,5.33-1.42,1.53-.94,2.82-2.18,3.88-3.71,1.06-1.53,1.86-3.25,2.4-5.16.54-1.91.81-3.86.81-5.84,0-3.38-.79-5.96-2.36-7.76-1.58-1.8-3.87-2.7-6.89-2.7-2.03,0-3.8.44-5.33,1.32-1.53.88-2.81,2.05-3.85,3.51-1.04,1.46-1.81,3.14-2.33,5.03-.52,1.89-.78,3.85-.78,5.87,0,3.47.78,6.14,2.33,8.03,1.55,1.89,3.81,2.83,6.78,2.83"/>
      <line class="cls-3" x1="519.09" y1="191.66" x2="815.09" y2="190.66"/>
    </g>
  </g>
</svg>